<?xml version="1.0" encoding="UTF-8" standalone="no"?>
<!-- Created with Inkscape (http://www.inkscape.org/) -->

<svg
   xmlns:dc="http://purl.org/dc/elements/1.1/"
   xmlns:cc="http://creativecommons.org/ns#"
   xmlns:rdf="http://www.w3.org/1999/02/22-rdf-syntax-ns#"
   xmlns:svg="http://www.w3.org/2000/svg"
   xmlns="http://www.w3.org/2000/svg"
   xmlns:sodipodi="http://sodipodi.sourceforge.net/DTD/sodipodi-0.dtd"
   xmlns:inkscape="http://www.inkscape.org/namespaces/inkscape"
   id="svg3004"
   version="1.1"
   inkscape:version="0.92.3 (2405546, 2018-03-11)"
   width="719.24768"
   height="395.53119"
   xml:space="preserve"
   sodipodi:docname="codemodel.svg"><metadata
     id="metadata3010"><rdf:RDF><cc:Work
         rdf:about=""><dc:format>image/svg+xml</dc:format><dc:type
           rdf:resource="http://purl.org/dc/dcmitype/StillImage" /><dc:title></dc:title></cc:Work></rdf:RDF></metadata><defs
     id="defs3008" /><sodipodi:namedview
     pagecolor="#ffffff"
     bordercolor="#666666"
     borderopacity="1"
     objecttolerance="10"
     gridtolerance="10"
     guidetolerance="10"
     inkscape:pageopacity="0"
     inkscape:pageshadow="2"
     inkscape:window-width="1920"
     inkscape:window-height="2096"
     id="namedview3006"
     showgrid="false"
     inkscape:zoom="1.42"
     inkscape:cx="393.2965"
     inkscape:cy="156.20222"
     inkscape:window-x="1920"
     inkscape:window-y="27"
     inkscape:window-maximized="0"
     inkscape:current-layer="g3012"
     fit-margin-top="0"
     fit-margin-left="0"
     fit-margin-right="0"
     fit-margin-bottom="0" /><g
     id="g3012"
     inkscape:groupmode="layer"
     inkscape:label="ink_ext_XXXXXX"
     transform="matrix(1.25,0,0,-1.25,46.871393,334.41587)"><path
       inkscape:connector-curvature="0"
       id="path3016"
       style="fill:#00ff00;fill-opacity:1;fill-rule:nonzero;stroke:none;stroke-width:0.06532292"
       d="m 117.16574,227.5327 h 120 v 40 h -120 z" /><path
       inkscape:connector-curvature="0"
       id="path3018"
       style="fill:none;stroke:#000000;stroke-width:1.61455905;stroke-linecap:butt;stroke-linejoin:miter;stroke-miterlimit:10;stroke-dasharray:none;stroke-opacity:1"
       d="m 117.29228,227.53998 h 118.38544 v 38.20426 H 117.29228 Z" /><path
       inkscape:connector-curvature="0"
       id="path3020"
       style="fill:#000000;fill-opacity:1;fill-rule:nonzero;stroke:none;stroke-width:0.05863009"
       d="m 134.76179,250.03724 h 2.33875 v -7.56739 h -2.33875 v 7.56739 m 0,2.88929 h 2.33875 v -1.926 h -2.33875 v 1.926" /><path
       inkscape:connector-curvature="0"
       id="path3022"
       style="fill:#000000;fill-opacity:1;fill-rule:nonzero;stroke:none;stroke-width:0.05863009"
       d="m 139.57649,250.03724 h 2.33875 v -7.56739 h -2.33875 v 7.56739 m 0,2.88929 h 2.33875 v -1.926 h -2.33875 v 1.926" /><path
       inkscape:connector-curvature="0"
       id="path3024"
       style="fill:#000000;fill-opacity:1;fill-rule:nonzero;stroke:none;stroke-width:0.05863009"
       d="m 147.97935,248.524 c -0.53998,0 -0.95215,-0.18938 -1.23592,-0.56754 -0.28377,-0.37699 -0.42565,-0.92167 -0.42565,-1.63402 0,-0.71236 0.14188,-1.25762 0.42565,-1.63578 0.28377,-0.37699 0.69594,-0.5652 1.23592,-0.5652 0.53061,0 0.93633,0.18821 1.21717,0.5652 0.28201,0.37816 0.4233,0.92342 0.4233,1.63578 0,0.71235 -0.14129,1.25703 -0.4233,1.63402 -0.28084,0.37816 -0.68656,0.56754 -1.21717,0.56754 m 0,1.7888 c 1.29163,0 2.30065,-0.35354 3.02708,-1.06003 0.72642,-0.70532 1.08993,-1.6821 1.08993,-2.93033 0,-1.24824 -0.36351,-2.2256 -1.08993,-2.93209 -0.72643,-0.70532 -1.73545,-1.05769 -3.02708,-1.05769 -1.29689,0 -2.31061,0.35237 -3.04172,1.05769 -0.73054,0.70649 -1.09639,1.68385 -1.09639,2.93209 0,1.24823 0.36585,2.22501 1.09639,2.93033 0.73111,0.70649 1.74483,1.06003 3.04172,1.06003" /><path
       inkscape:connector-curvature="0"
       id="path3026"
       style="fill:#000000;fill-opacity:1;fill-rule:nonzero;stroke:none;stroke-width:0.05863009"
       d="m 152.96291,239.16839 h 6.87919 v 1.23811 h -6.87919 z" /><path
       inkscape:connector-curvature="0"
       id="path3028"
       style="fill:#000000;fill-opacity:1;fill-rule:nonzero;stroke:none;stroke-width:0.05863009"
       d="m 167.17367,249.76227 v -1.92659 c -0.32715,0.23393 -0.65431,0.40631 -0.98264,0.51829 -0.32832,0.11316 -0.66838,0.17003 -1.02075,0.17003 -0.66955,0 -1.19136,-0.19348 -1.56542,-0.58044 -0.3723,-0.38696 -0.55874,-0.92753 -0.55874,-1.62112 0,-0.6936 0.18644,-1.23358 0.55874,-1.62054 0.37406,-0.38696 0.89587,-0.58044 1.56542,-0.58044 0.37524,0 0.73112,0.0581 1.06824,0.17414 0.3383,0.11608 0.65021,0.28728 0.93515,0.5136 v -1.926 c -0.37406,-0.18352 -0.75398,-0.3213 -1.13918,-0.41335 -0.38461,-0.0915 -0.7704,-0.13719 -1.15912,-0.13719 -1.34849,0 -2.40324,0.35178 -3.16426,1.05593 -0.76102,0.70356 -1.14153,1.68151 -1.14153,2.93385 0,1.25292 0.38051,2.23087 1.14153,2.93443 0.76102,0.70357 1.81577,1.05593 3.16426,1.05593 0.39283,0 0.7792,-0.0463 1.15912,-0.13778 0.3811,-0.0921 0.76102,-0.22924 1.13918,-0.41275" /><path
       inkscape:connector-curvature="0"
       id="path3030"
       style="fill:#000000;fill-opacity:1;fill-rule:nonzero;stroke:none;stroke-width:0.05863009"
       d="m 173.05134,248.524 c -0.54057,0 -0.95274,-0.18938 -1.23651,-0.56754 -0.28377,-0.37699 -0.42507,-0.92167 -0.42507,-1.63402 0,-0.71236 0.1413,-1.25762 0.42507,-1.63578 0.28377,-0.37699 0.69594,-0.5652 1.23651,-0.5652 0.53002,0 0.93574,0.18821 1.21657,0.5652 0.2826,0.37816 0.42331,0.92342 0.42331,1.63578 0,0.71235 -0.14071,1.25703 -0.42331,1.63402 -0.28083,0.37816 -0.68655,0.56754 -1.21657,0.56754 m 0,1.7888 c 1.29103,0 2.30006,-0.35354 3.02649,-1.06003 0.72642,-0.70532 1.08993,-1.6821 1.08993,-2.93033 0,-1.24824 -0.36351,-2.2256 -1.08993,-2.93209 -0.72643,-0.70532 -1.73546,-1.05769 -3.02649,-1.05769 -1.29748,0 -2.3112,0.35237 -3.04173,1.05769 -0.73112,0.70649 -1.09697,1.68385 -1.09697,2.93209 0,1.24823 0.36585,2.22501 1.09697,2.93033 0.73053,0.70649 1.74425,1.06003 3.04173,1.06003" /><path
       inkscape:connector-curvature="0"
       id="path3032"
       style="fill:#000000;fill-opacity:1;fill-rule:nonzero;stroke:none;stroke-width:0.05863009"
       d="m 186.70218,247.17844 v -4.70859 h -2.33934 v 3.60341 c 0,0.6678 -0.0158,1.12804 -0.0469,1.38015 -0.0305,0.25387 -0.0833,0.43973 -0.15947,0.55875 -0.0985,0.16182 -0.23335,0.28728 -0.40397,0.3764 -0.16885,0.0903 -0.36174,0.13544 -0.57809,0.13544 -0.52884,0 -0.94453,-0.19934 -1.24706,-0.59744 -0.30253,-0.39869 -0.45321,-0.94981 -0.45321,-1.65337 v -3.80334 h -2.33934 v 7.56739 h 2.33934 v -0.96271 c 0.3682,0.4239 0.75867,0.7364 1.17143,0.93691 0.41275,0.2011 0.86831,0.30136 1.36725,0.30136 0.88121,0 1.5496,-0.26735 2.00574,-0.80206 0.45555,-0.5347 0.68362,-1.31214 0.68362,-2.3323" /><path
       inkscape:connector-curvature="0"
       id="path3034"
       style="fill:#000000;fill-opacity:1;fill-rule:nonzero;stroke:none;stroke-width:0.05863009"
       d="m 191.75258,252.10102 v -2.06378 h 2.47654 v -1.78822 h -2.47654 v -3.11736 c 0,-0.34123 0.0715,-0.57164 0.21517,-0.69242 0.14365,-0.12019 0.42683,-0.18058 0.85131,-0.18058 h 1.27286 v -1.78881 h -2.12417 c -0.92753,0 -1.58536,0.20169 -1.97349,0.60448 -0.38695,0.40396 -0.58043,1.08993 -0.58043,2.05733 v 3.11736 h -1.23827 v 1.78822 h 1.23827 v 2.06378 h 2.33875" /><path
       inkscape:connector-curvature="0"
       id="path3036"
       style="fill:#000000;fill-opacity:1;fill-rule:nonzero;stroke:none;stroke-width:0.05863009"
       d="m 203.42994,246.47077 v -0.69828 h -5.778 c 0.0586,-0.59627 0.26559,-1.04362 0.62089,-1.34146 0.35706,-0.29843 0.85483,-0.44735 1.4939,-0.44735 0.51594,0 1.0442,0.0797 1.58477,0.23863 0.53998,0.15889 1.09521,0.40044 1.66568,0.72467 v -1.78881 c -0.56754,-0.27263 -1.13508,-0.47783 -1.70262,-0.61679 -0.56754,-0.13954 -1.13566,-0.20872 -1.70438,-0.20872 -1.35845,0 -2.41497,0.34885 -3.16895,1.04713 -0.75223,0.69946 -1.12863,1.68034 -1.12863,2.94265 0,1.24002 0.37289,2.21446 1.11808,2.92388 0.74518,0.7106 1.77062,1.06648 3.07632,1.06648 1.18784,0 2.13882,-0.34943 2.85235,-1.04713 0.71411,-0.69653 1.07059,-1.62816 1.07059,-2.7949 m -2.33876,0.81496 c 0,0.41276 -0.1454,0.74519 -0.43621,0.9973 -0.29139,0.25211 -0.67073,0.37875 -1.13977,0.37875 -0.50891,0 -0.92225,-0.11843 -1.24002,-0.35471 -0.3166,-0.23687 -0.51477,-0.57692 -0.59334,-1.02134 h 3.40934" /><path
       inkscape:connector-curvature="0"
       id="path3038"
       style="fill:#000000;fill-opacity:1;fill-rule:nonzero;stroke:none;stroke-width:0.05863009"
       d="m 207.4115,246.34179 -2.68936,3.69545 h 2.52403 l 1.52438,-2.24201 1.54549,2.24201 h 2.52344 l -2.68936,-3.68256 2.82714,-3.88483 h -2.52579 l -1.68092,2.39329 -1.65982,-2.39329 h -2.52637 l 2.82714,3.87194" /><path
       inkscape:connector-curvature="0"
       id="path3040"
       style="fill:#000000;fill-opacity:1;fill-rule:nonzero;stroke:none;stroke-width:0.05863009"
       d="m 217.11478,252.10102 v -2.06378 h 2.47654 v -1.78822 h -2.47654 v -3.11736 c 0,-0.34123 0.0715,-0.57164 0.21459,-0.69242 0.14364,-0.12019 0.42741,-0.18058 0.85131,-0.18058 h 1.27286 v -1.78881 h -2.12417 c -0.92694,0 -1.58477,0.20169 -1.97349,0.60448 -0.38637,0.40396 -0.57985,1.08993 -0.57985,2.05733 v 3.11736 h -1.23885 v 1.78822 h 1.23885 v 2.06378 h 2.33875" /><path
       inkscape:connector-curvature="0"
       id="path3066"
       style="fill:#ffffff;fill-opacity:1;fill-rule:nonzero;stroke:none;stroke-width:0.05863009"
       d="m 271.48858,-6.516684 h 116.335 v 33.238683 h -116.335 z" /><path
       inkscape:connector-curvature="0"
       id="path3068"
       style="fill:#00ff00;fill-opacity:1;stroke:#000000;stroke-width:1.60000002;stroke-linecap:butt;stroke-linejoin:miter;stroke-miterlimit:10;stroke-dasharray:none;stroke-opacity:1"
       d="m 269.95561,-11.249649 h 118.204 v 38.204002 h -118.204 z" /><path
       inkscape:connector-curvature="0"
       id="path3070"
       style="fill:#000000;fill-opacity:1;fill-rule:nonzero;stroke:none;stroke-width:0.05863009"
       d="m 286.42518,11.187979 h 2.33876 v -7.56721 h -2.33876 v 7.56721 m 0,2.88912 h 2.33876 v -1.92612 h -2.33876 v 1.92612" /><path
       inkscape:connector-curvature="0"
       id="path3072"
       style="fill:#000000;fill-opacity:1;fill-rule:nonzero;stroke:none;stroke-width:0.05863009"
       d="m 291.23988,11.187979 h 2.33876 v -7.56721 h -2.33876 v 7.56721 m 0,2.88912 h 2.33876 v -1.92612 h -2.33876 v 1.92612" /><path
       inkscape:connector-curvature="0"
       id="path3074"
       style="fill:#000000;fill-opacity:1;fill-rule:nonzero;stroke:none;stroke-width:0.05863009"
       d="m 299.64275,9.674329 c -0.53998,0 -0.95215,-0.18914 -1.23592,-0.56748 -0.28377,-0.37676 -0.42566,-0.92137 -0.42566,-1.63367 0,-0.71224 0.14189,-1.25779 0.42566,-1.63613 0.28377,-0.37676 0.69594,-0.56525 1.23592,-0.56525 0.5306,0 0.93632,0.18849 1.21716,0.56525 0.28201,0.37834 0.42331,0.92389 0.42331,1.63613 0,0.7123 -0.1413,1.25691 -0.42331,1.63367 -0.28084,0.37834 -0.68656,0.56748 -1.21716,0.56748 m 0,1.78869 c 1.29162,0 2.30064,-0.35313 3.02707,-1.05968 0.72643,-0.70521 1.08993,-1.68198 1.08993,-2.93016 0,-1.24841 -0.3635,-2.22589 -1.08993,-2.93238 -0.72643,-0.70497 -1.73545,-1.05763 -3.02707,-1.05763 -1.2969,0 -2.31061,0.35266 -3.04173,1.05763 -0.73053,0.70649 -1.09638,1.68397 -1.09638,2.93238 0,1.24818 0.36585,2.22495 1.09638,2.93016 0.73112,0.70655 1.74483,1.05968 3.04173,1.05968" /><path
       inkscape:connector-curvature="0"
       id="path3076"
       style="fill:#000000;fill-opacity:1;fill-rule:nonzero;stroke:none;stroke-width:0.05863009"
       d="m 304.62631,0.318729 h 6.87918 v 1.23833 h -6.87918 z" /><path
       inkscape:connector-curvature="0"
       id="path3078"
       style="fill:#000000;fill-opacity:1;fill-rule:nonzero;stroke:none;stroke-width:0.05863009"
       d="m 318.83707,10.912659 v -1.92606 c -0.32716,0.23358 -0.65431,0.40625 -0.98264,0.51805 -0.32833,0.1131 -0.66839,0.16968 -1.02134,0.16968 -0.66897,0 -1.19078,-0.1933 -1.56484,-0.58032 -0.3723,-0.38684 -0.55874,-0.92735 -0.55874,-1.62083 0,-0.69371 0.18644,-1.23399 0.55874,-1.621 0.37406,-0.38685 0.89587,-0.58038 1.56484,-0.58038 0.37582,0 0.73171,0.058 1.06883,0.17407 0.33829,0.11615 0.64962,0.2874 0.93515,0.51372 v -1.92612 c -0.37406,-0.18345 -0.75398,-0.32106 -1.13918,-0.4127 -0.38462,-0.0918 -0.77099,-0.1376 -1.15912,-0.1376 -1.34849,0 -2.40325,0.35178 -3.16427,1.05552 -0.76102,0.70356 -1.14153,1.68174 -1.14153,2.93449 0,1.25257 0.38051,2.2307 1.14153,2.93426 0.76102,0.7038 1.81578,1.05558 3.16427,1.05558 0.39282,0 0.77919,-0.0458 1.15912,-0.13767 0.38109,-0.0916 0.76101,-0.22924 1.13918,-0.41269" /><path
       inkscape:connector-curvature="0"
       id="path3080"
       style="fill:#000000;fill-opacity:1;fill-rule:nonzero;stroke:none;stroke-width:0.05863009"
       d="m 328.69396,8.328589 v -4.70782 h -2.33934 v 3.58998 c 0,0.67654 -0.0153,1.141 -0.0469,1.39311 -0.0299,0.25381 -0.0832,0.43996 -0.15947,0.55886 -0.0985,0.16212 -0.23335,0.28741 -0.40396,0.37629 -0.16944,0.0902 -0.36175,0.13532 -0.57809,0.13532 -0.52885,0 -0.94453,-0.19899 -1.24707,-0.5975 -0.30253,-0.39851 -0.45379,-0.94957 -0.45379,-1.65313 v -3.80293 h -2.33876 v 10.45633 h 2.33876 v -3.85241 c 0.36878,0.42437 0.75926,0.73675 1.17201,0.93738 0.41276,0.20063 0.86831,0.30095 1.36667,0.30095 0.8818,0 1.55018,-0.2673 2.00632,-0.80183 0.45556,-0.53453 0.68363,-1.31208 0.68363,-2.3326" /><path
       inkscape:connector-curvature="0"
       id="path3082"
       style="fill:#000000;fill-opacity:1;fill-rule:nonzero;stroke:none;stroke-width:0.05863009"
       d="m 334.50127,7.060249 c -0.52474,0 -0.91932,-0.0831 -1.18491,-0.24918 -0.26501,-0.16487 -0.39752,-0.40859 -0.39752,-0.73106 0,-0.2952 0.10671,-0.52673 0.32012,-0.69435 0.214,-0.16769 0.5095,-0.25147 0.88825,-0.25147 0.47432,0 0.87242,0.15754 1.19488,0.47291 0.32422,0.31537 0.48604,0.71019 0.48604,1.18451 v 0.26864 h -1.30686 m 3.64562,0.87283 v -4.31231 h -2.33876 v 1.23833 c -0.32539,-0.48024 -0.69124,-0.82997 -1.09814,-1.04913 -0.40572,-0.21781 -0.89938,-0.3268 -1.48158,-0.3268 -0.78506,0 -1.42295,0.2242 -1.9131,0.67284 -0.49015,0.45004 -0.73522,1.03335 -0.73522,1.74999 0,0.87277 0.30077,1.51271 0.9029,1.91966 0.60331,0.40696 1.55077,0.61058 2.8418,0.61058 h 1.48334 v 0.19354 c 0,0.40836 -0.15068,0.70719 -0.45145,0.89639 -0.30077,0.19055 -0.7704,0.28582 -1.40829,0.28582 -0.51595,0 -0.99671,-0.0573 -1.4423,-0.17202 -0.44383,-0.1145 -0.85717,-0.28646 -1.23827,-0.51577 v 1.78846 c 0.50598,0.18069 1.0143,0.31742 1.52438,0.41064 0.51126,0.0932 1.02251,0.13972 1.53259,0.13972 1.35025,0 2.32469,-0.27732 2.92389,-0.83179 0.59861,-0.55335 0.89821,-1.45273 0.89821,-2.69815" /><path
       inkscape:connector-curvature="0"
       id="path3084"
       style="fill:#000000;fill-opacity:1;fill-rule:nonzero;stroke:none;stroke-width:0.05863009"
       d="m 348.20312,8.328589 v -4.70782 h -2.33875 v 3.603 c 0,0.66785 -0.0158,1.12798 -0.0475,1.38009 -0.0305,0.25381 -0.0833,0.43996 -0.15889,0.55886 -0.0991,0.16212 -0.23393,0.28741 -0.40455,0.37629 -0.16885,0.0902 -0.36175,0.13532 -0.57809,0.13532 -0.52884,0 -0.94453,-0.19899 -1.24706,-0.5975 -0.30195,-0.39851 -0.45321,-0.94957 -0.45321,-1.65313 v -3.80293 h -2.33934 v 7.56721 h 2.33934 v -0.96329 c 0.36819,0.42437 0.75867,0.73675 1.17143,0.93738 0.41275,0.20063 0.86831,0.30095 1.36725,0.30095 0.88121,0 1.55018,-0.2673 2.00573,-0.80183 0.45556,-0.53453 0.68363,-1.31208 0.68363,-2.3326" /><path
       inkscape:connector-curvature="0"
       id="path3086"
       style="fill:#000000;fill-opacity:1;fill-rule:nonzero;stroke:none;stroke-width:0.05863009"
       d="m 358.20659,8.328589 v -4.70782 h -2.33876 v 3.603 c 0,0.66785 -0.0158,1.12798 -0.0469,1.38009 -0.0305,0.25381 -0.0833,0.43996 -0.15947,0.55886 -0.0991,0.16212 -0.23335,0.28741 -0.40397,0.37629 -0.16944,0.0902 -0.36233,0.13532 -0.57868,0.13532 -0.52884,0 -0.94394,-0.19899 -1.24647,-0.5975 -0.30253,-0.39851 -0.4538,-0.94957 -0.4538,-1.65313 v -3.80293 h -2.33875 v 7.56721 h 2.33875 v -0.96329 c 0.3682,0.42437 0.75868,0.73675 1.17143,0.93738 0.41334,0.20063 0.8689,0.30095 1.36726,0.30095 0.88179,0 1.55017,-0.2673 2.00573,-0.80183 0.45614,-0.53453 0.68363,-1.31208 0.68363,-2.3326" /><path
       inkscape:connector-curvature="0"
       id="path3088"
       style="fill:#000000;fill-opacity:1;fill-rule:nonzero;stroke:none;stroke-width:0.05863009"
       d="m 368.21064,7.621399 v -0.69852 h -5.77858 c 0.0586,-0.59639 0.26559,-1.04344 0.62089,-1.34163 0.35706,-0.29796 0.85541,-0.44706 1.49448,-0.44706 0.51595,0 1.0442,0.0794 1.58419,0.23863 0.54057,0.15918 1.09579,0.40056 1.66626,0.72437 v -1.78839 c -0.56754,-0.27234 -1.13507,-0.47801 -1.70261,-0.61703 -0.56754,-0.13901 -1.13567,-0.2086 -1.70497,-0.2086 -1.35846,0 -2.41497,0.34902 -3.16837,1.04684 -0.75281,0.69946 -1.12863,1.68057 -1.12863,2.94317 0,1.23973 0.3723,2.21422 1.11749,2.92353 0.74519,0.71083 1.77063,1.06631 3.07632,1.06631 1.18844,0 2.13942,-0.34903 2.85294,-1.04684 0.71353,-0.69647 1.07059,-1.62816 1.07059,-2.79478 m -2.33875,0.81484 c 0,0.4127 -0.14599,0.74525 -0.4368,0.99741 -0.2908,0.25235 -0.67073,0.37834 -1.13918,0.37834 -0.50891,0 -0.92225,-0.11819 -1.24061,-0.35477 -0.31661,-0.23633 -0.51419,-0.57668 -0.59334,-1.02098 h 3.40993" /><path
       inkscape:connector-curvature="0"
       id="path3090"
       style="fill:#000000;fill-opacity:1;fill-rule:nonzero;stroke:none;stroke-width:0.05863009"
       d="m 370.19058,3.620769 h 2.33902 v 10.45633 h -2.33902 z" /><path
       inkscape:connector-curvature="0"
       id="path3092"
       style="fill:#ffffff;fill-opacity:1;fill-rule:nonzero;stroke:none;stroke-width:0.05863009"
       d="M -34.67542,-7.31842 H 81.65957 V 25.92004 H -34.67542 Z" /><path
       inkscape:connector-curvature="0"
       id="path3094"
       style="fill:#00ff00;fill-opacity:1;stroke:#000000;stroke-width:1.60000002;stroke-linecap:butt;stroke-linejoin:miter;stroke-miterlimit:10;stroke-dasharray:none;stroke-opacity:1"
       d="M -36.208382,-13.651382 H 81.995614 V 24.552614 H -36.208382 Z" /><path
       inkscape:connector-curvature="0"
       id="path3096"
       style="fill:#000000;fill-opacity:1;fill-rule:nonzero;stroke:none;stroke-width:0.05863009"
       d="m -12.59299,8.78583 h 2.33934 V 1.21904 h -2.33934 v 7.56679 m 0,2.8893 h 2.33934 v -1.926 h -2.33934 v 1.926" /><path
       inkscape:connector-curvature="0"
       id="path3098"
       style="fill:#000000;fill-opacity:1;fill-rule:nonzero;stroke:none;stroke-width:0.05863009"
       d="m -7.7777,8.78583 h 2.33876 V 1.21904 H -7.7777 v 7.56679 m 0,2.8893 h 2.33876 v -1.926 H -7.7777 v 1.926" /><path
       inkscape:connector-curvature="0"
       id="path3100"
       style="fill:#000000;fill-opacity:1;fill-rule:nonzero;stroke:none;stroke-width:0.05863009"
       d="m 0.62517,7.27259 c -0.53999,0 -0.95215,-0.18937 -1.23592,-0.56754 -0.28377,-0.37699 -0.42566,-0.92166 -0.42566,-1.63402 0,-0.71235 0.14189,-1.25761 0.42566,-1.63578 0.28377,-0.37699 0.69593,-0.56519 1.23592,-0.56519 0.5306,0 0.93573,0.1882 1.21716,0.56519 0.28201,0.37817 0.42331,0.92343 0.42331,1.63578 0,0.71236 -0.1413,1.25703 -0.42331,1.63402 C 1.5609,7.08322 1.15577,7.27259 0.62517,7.27259 m 0,1.78822 c 1.29162,0 2.30006,-0.35295 3.02707,-1.05945 C 4.37867,7.29604 4.74217,6.31927 4.74217,5.07103 4.74217,3.8228 4.37867,2.84543 3.65224,2.13894 2.92523,1.43362 1.91679,1.08125 0.62517,1.08125 c -1.2969,0 -2.31061,0.35237 -3.04173,1.05769 -0.73112,0.70649 -1.09638,1.68386 -1.09638,2.93209 0,1.24824 0.36526,2.22501 1.09638,2.93033 0.73112,0.7065 1.74483,1.05945 3.04173,1.05945" /><path
       inkscape:connector-curvature="0"
       id="path3102"
       style="fill:#000000;fill-opacity:1;fill-rule:nonzero;stroke:none;stroke-width:0.05863009"
       d="m 5.60814,-2.08301 h 6.87919 v 1.23833 H 5.60814 Z" /><path
       inkscape:connector-curvature="0"
       id="path3104"
       style="fill:#000000;fill-opacity:1;fill-rule:nonzero;stroke:none;stroke-width:0.05863009"
       d="m 17.76216,2.87006 c 0.5347,0 0.94218,0.18761 1.22302,0.56285 0.28084,0.37582 0.42155,0.92166 0.42155,1.63812 0,0.71705 -0.14071,1.26289 -0.42155,1.63813 -0.28084,0.37582 -0.68832,0.56343 -1.22302,0.56343 -0.53354,0 -0.94336,-0.18937 -1.23006,-0.56754 -0.28494,-0.37816 -0.428,-0.92283 -0.428,-1.63402 0,-0.71059 0.14306,-1.25527 0.428,-1.63343 0.2867,-0.37875 0.69652,-0.56754 1.23006,-0.56754 M 16.1041,7.82313 c 0.33829,0.42389 0.71294,0.73639 1.12276,0.93691 0.411,0.20051 0.88415,0.30077 1.41827,0.30077 0.94453,0 1.7202,-0.37171 2.32644,-1.11514 0.60741,-0.74402 0.9117,-1.70204 0.9117,-2.87464 0,-1.17201 -0.30429,-2.13003 -0.9117,-2.87404 -0.60624,-0.74402 -1.38191,-1.11574 -2.32644,-1.11574 -0.53412,0 -1.00727,0.10026 -1.41827,0.30136 -0.40982,0.20052 -0.78447,0.51302 -1.12276,0.93691 V 1.21904 h -2.33876 v 10.45609 h 2.33876 v -3.852" /><path
       inkscape:connector-curvature="0"
       id="path3106"
       style="fill:#000000;fill-opacity:1;fill-rule:nonzero;stroke:none;stroke-width:0.05863009"
       d="m 23.85206,4.17692 v 4.60891 h 2.33935 V 8.03127 c 0,-0.40807 -0.002,-0.92108 -0.006,-1.53904 -0.005,-0.61797 -0.006,-1.03014 -0.006,-1.23593 0,-0.60799 0.0164,-1.04596 0.0493,-1.3139 0.0328,-0.26618 0.0897,-0.45966 0.17002,-0.58043 0.10436,-0.15772 0.2398,-0.27908 0.40631,-0.36527 0.16768,-0.0844 0.36057,-0.12664 0.57809,-0.12664 0.52885,0 0.94395,0.19289 1.24472,0.57809 0.30253,0.38696 0.4538,0.9246 0.4538,1.61233 V 8.78583 H 31.4204 V 1.21904 H 29.08165 V 2.31952 C 28.71462,1.89563 28.32532,1.58313 27.91373,1.38261 27.50274,1.18151 27.05011,1.08125 26.55528,1.08125 c -0.87946,0 -1.55077,0.26384 -2.01219,0.79092 -0.45966,0.52885 -0.69008,1.29749 -0.69008,2.30475" /><path
       inkscape:connector-curvature="0"
       id="path3108"
       style="fill:#000000;fill-opacity:1;fill-rule:nonzero;stroke:none;stroke-width:0.05863009"
       d="M 38.94697,11.67513 V 10.0241 h -1.38719 c -0.3553,0 -0.60213,-0.0551 -0.74108,-0.16533 -0.14072,-0.11609 -0.21107,-0.31309 -0.21107,-0.591 V 8.78583 h 2.88929 v 0.51595 c 0,0.80968 0.22279,1.40712 0.66897,1.79115 0.44676,0.38813 1.13801,0.5822 2.07433,0.5822 h 1.79701 V 10.0241 h -1.3051 c -0.33361,0 -0.56696,-0.0551 -0.69829,-0.16533 -0.13192,-0.11609 -0.19817,-0.31309 -0.19817,-0.591 V 8.78583 h 2.06378 V 6.99703 H 41.83567 V 1.21904 H 39.49692 V 6.99703 H 36.60763 V 1.21904 h -2.33876 v 5.77799 h -1.23826 v 1.7888 h 1.23826 v 0.51595 c 0,0.80968 0.22983,1.40712 0.69008,1.79115 0.45849,0.38813 1.17026,0.5822 2.13472,0.5822 h 1.8533" /><path
       inkscape:connector-curvature="0"
       id="path3110"
       style="fill:#000000;fill-opacity:1;fill-rule:nonzero;stroke:none;stroke-width:0.05863009"
       d="M 52.79657,5.21937 V 4.52108 h -5.77858 c 0.0586,-0.59627 0.26618,-1.04361 0.62147,-1.34145 0.35648,-0.29843 0.85483,-0.44735 1.4939,-0.44735 0.51594,0 1.0442,0.0797 1.58477,0.23862 0.53998,0.15889 1.09521,0.40045 1.66568,0.72467 V 1.90677 C 51.81627,1.63472 51.24873,1.42893 50.68119,1.28998 50.11365,1.15102 49.54553,1.08125 48.97623,1.08125 c -1.35846,0 -2.41439,0.34885 -3.16837,1.04714 -0.75281,0.69887 -1.12863,1.68034 -1.12863,2.94264 0,1.24003 0.37289,2.21446 1.11808,2.92388 0.74519,0.71119 1.77063,1.0659 3.07573,1.0659 1.18843,0 2.13941,-0.34885 2.85294,-1.04655 0.71353,-0.69652 1.07059,-1.62815 1.07059,-2.79489 m -2.33876,0.81495 c 0,0.41276 -0.1454,0.74519 -0.43679,0.9973 -0.29081,0.2527 -0.67014,0.37875 -1.13918,0.37875 -0.50891,0 -0.92226,-0.11843 -1.24062,-0.35471 C 47.32462,6.8188 47.12704,6.47874 47.04847,6.03432 h 3.40934" /><path
       inkscape:connector-curvature="0"
       id="path3112"
       style="fill:#000000;fill-opacity:1;fill-rule:nonzero;stroke:none;stroke-width:0.05863009"
       d="m 60.41731,6.85984 c -0.21752,0.0932 -0.43445,0.16182 -0.65138,0.20637 -0.21635,0.0457 -0.43328,0.0686 -0.65138,0.0686 -0.64024,0 -1.13391,-0.20227 -1.481,-0.60799 C 57.28822,6.12227 57.11526,5.54359 57.11526,4.78961 V 1.21904 h -2.33875 v 7.56679 h 2.33875 V 7.68535 c 0.32129,0.47842 0.68949,0.82785 1.10518,1.04655 0.41568,0.21986 0.91345,0.32891 1.49448,0.32891 0.0827,0 0.17296,-0.005 0.27028,-0.0147 0.0979,-0.01 0.23921,-0.0322 0.42566,-0.0668 l 0.006,-2.11947" /><path
       inkscape:connector-curvature="0"
       id="path3116"
       style="fill:#000000;fill-opacity:1;fill-rule:nonzero;stroke:none;stroke-width:0.05863009"
       d="m 108.81975,247.47045 h 1.65102 v 5.91636 l -1.7888,-0.41276 v 0.82551 l 1.80346,0.41276 h 1.08583 v -6.74187 h 1.65102 v -0.82552 h -4.40253 v 0.82552" /><path
       inkscape:connector-curvature="0"
       id="path3042"
       style="fill:#00ff00;fill-opacity:1;fill-rule:nonzero;stroke:none;stroke-width:0.06532291"
       d="m 116.69581,107.24373 h 120 v 40 h -120 z" /><path
       inkscape:connector-curvature="0"
       id="path3044"
       style="fill:none;stroke:#000000;stroke-width:1.60000002;stroke-linecap:butt;stroke-linejoin:miter;stroke-miterlimit:10;stroke-dasharray:none;stroke-opacity:1"
       d="m 116.76284,107.31076 h 118.204 v 38.204 h -118.204 z" /><path
       inkscape:connector-curvature="0"
       id="path3046"
       style="fill:#000000;fill-opacity:1;fill-rule:nonzero;stroke:none;stroke-width:0.05863009"
       d="m 140.19192,129.74798 h 2.33875 v -7.56678 h -2.33875 v 7.56678 m 0,2.8893 h 2.33875 v -1.92599 h -2.33875 v 1.92599" /><path
       inkscape:connector-curvature="0"
       id="path3048"
       style="fill:#000000;fill-opacity:1;fill-rule:nonzero;stroke:none;stroke-width:0.05863009"
       d="m 145.00691,129.74798 h 2.33899 v -7.56678 h -2.33899 v 7.56678 m 0,2.8893 h 2.33899 v -1.92599 h -2.33899 v 1.92599" /><path
       inkscape:connector-curvature="0"
       id="path3050"
       style="fill:#000000;fill-opacity:1;fill-rule:nonzero;stroke:none;stroke-width:0.05863009"
       d="m 153.40978,128.23474 c -0.54028,0 -0.95227,-0.18937 -1.23604,-0.56754 -0.28377,-0.37699 -0.42578,-0.92166 -0.42578,-1.63402 0,-0.71235 0.14201,-1.25761 0.42578,-1.63578 0.28377,-0.37699 0.69576,-0.56519 1.23604,-0.56519 0.53042,0 0.93603,0.1882 1.2168,0.56519 0.28237,0.37817 0.42349,0.92343 0.42349,1.63578 0,0.71236 -0.14112,1.25703 -0.42349,1.63402 -0.28077,0.37817 -0.68638,0.56754 -1.2168,0.56754 m 0,1.78822 c 1.29121,0 2.30029,-0.35295 3.02701,-1.05945 0.72648,-0.70532 1.08993,-1.68209 1.08993,-2.93033 0,-1.24823 -0.36345,-2.2256 -1.08993,-2.93209 -0.72672,-0.70532 -1.7358,-1.05769 -3.02701,-1.05769 -1.29696,0 -2.31085,0.35237 -3.04191,1.05769 -0.73082,0.70649 -1.09632,1.68386 -1.09632,2.93209 0,1.24824 0.3655,2.22501 1.09632,2.93033 0.73106,0.7065 1.74495,1.05945 3.04191,1.05945" /><path
       inkscape:connector-curvature="0"
       id="path3052"
       style="fill:#000000;fill-opacity:1;fill-rule:nonzero;stroke:none;stroke-width:0.05863009"
       d="m 158.39286,118.87914 h 6.87919 v 1.23833 h -6.87919 z" /><path
       inkscape:connector-curvature="0"
       id="path3054"
       style="fill:#000000;fill-opacity:1;fill-rule:nonzero;stroke:none;stroke-width:0.05863009"
       d="m 171.77817,128.78528 v 3.852 h 2.33905 V 122.1812 h -2.33905 v 1.10048 c -0.33806,-0.42859 -0.71065,-0.74226 -1.11784,-0.9416 -0.40701,-0.19758 -0.87857,-0.29667 -1.41445,-0.29667 -0.94729,0 -1.72548,0.37172 -2.33471,1.11573 -0.60758,0.74401 -0.91152,1.70204 -0.91152,2.87405 0,1.17259 0.30394,2.13061 0.91152,2.87464 0.60923,0.74342 1.38742,1.11513 2.33471,1.11513 0.53019,0 1.00035,-0.10025 1.41029,-0.30077 0.40976,-0.20052 0.78394,-0.51302 1.122,-0.93691 m -1.65512,-4.95307 c 0.53728,0 0.94722,0.18761 1.22959,0.56285 0.28376,0.37582 0.42553,0.92166 0.42553,1.63812 0,0.71705 -0.14177,1.26289 -0.42553,1.63813 -0.28237,0.37582 -0.69231,0.56343 -1.22959,0.56343 -0.53184,0 -0.93949,-0.18761 -1.22326,-0.56343 -0.28237,-0.37524 -0.42343,-0.92108 -0.42343,-1.63813 0,-0.71646 0.14106,-1.2623 0.42343,-1.63812 0.28377,-0.37524 0.69142,-0.56285 1.22326,-0.56285" /><path
       inkscape:connector-curvature="0"
       id="path3056"
       style="fill:#000000;fill-opacity:1;fill-rule:nonzero;stroke:none;stroke-width:0.05863009"
       d="m 184.20412,126.18152 v -0.69829 h -5.77859 c 0.0586,-0.59627 0.2656,-1.04361 0.6209,-1.34145 0.35705,-0.29843 0.85541,-0.44735 1.49448,-0.44735 0.51594,0 1.04361,0.0797 1.58418,0.23862 0.54057,0.15889 1.0958,0.40045 1.66627,0.72467 v -1.7888 c -0.56754,-0.27205 -1.13508,-0.47784 -1.70262,-0.61679 -0.56754,-0.13896 -1.13566,-0.20873 -1.70496,-0.20873 -1.35846,0 -2.41497,0.34885 -3.16884,1.04714 -0.75234,0.69887 -1.12863,1.68034 -1.12863,2.94264 0,1.24003 0.37265,2.21446 1.1179,2.92388 0.74525,0.71119 1.77069,1.0659 3.07638,1.0659 1.18785,0 2.13883,-0.34885 2.85294,-1.04655 0.71353,-0.69652 1.07059,-1.62815 1.07059,-2.79489 m -2.33934,0.81495 c 0,0.41276 -0.14541,0.74519 -0.43621,0.9973 -0.29081,0.2527 -0.67073,0.37875 -1.13918,0.37875 -0.50891,0 -0.92226,-0.11843 -1.24062,-0.35471 -0.3166,-0.23686 -0.51418,-0.57692 -0.59333,-1.02134 h 3.40934" /><path
       inkscape:connector-curvature="0"
       id="path3058"
       style="fill:#000000;fill-opacity:1;fill-rule:nonzero;stroke:none;stroke-width:0.05863009"
       d="m 185.35854,129.74798 h 2.3968 l 1.86796,-5.23039 1.86209,5.23039 h 2.40324 l -2.95378,-7.56678 h -2.63132 l -2.94499,7.56678" /><path
       inkscape:connector-curvature="0"
       id="path3060"
       style="fill:#000000;fill-opacity:1;fill-rule:nonzero;stroke:none;stroke-width:0.05863009"
       d="m 195.35732,129.74798 h 2.33875 v -7.56678 h -2.33875 v 7.56678 m 0,2.8893 h 2.33875 v -1.92599 h -2.33875 v 1.92599" /><path
       inkscape:connector-curvature="0"
       id="path3062"
       style="fill:#000000;fill-opacity:1;fill-rule:nonzero;stroke:none;stroke-width:0.05863009"
       d="m 206.22616,129.47301 v -1.926 c -0.32656,0.23335 -0.65431,0.40631 -0.98205,0.5177 -0.32833,0.11375 -0.66897,0.17003 -1.02134,0.17003 -0.66955,0 -1.19136,-0.19348 -1.56483,-0.58044 -0.37289,-0.38695 -0.55933,-0.92694 -0.55933,-1.62112 0,-0.69359 0.18644,-1.23357 0.55933,-1.62112 0.37347,-0.38637 0.89528,-0.57985 1.56483,-0.57985 0.37524,0 0.73171,0.058 1.06824,0.17413 0.3383,0.11609 0.65021,0.28729 0.93515,0.5136 v -1.926 c -0.37406,-0.18351 -0.75398,-0.32129 -1.13918,-0.41274 -0.38461,-0.0921 -0.7704,-0.13779 -1.15911,-0.13779 -1.3485,0 -2.40325,0.35178 -3.16427,1.05535 -0.76102,0.70414 -1.14153,1.68208 -1.14153,2.93443 0,1.25292 0.38051,2.23088 1.14153,2.93443 0.76102,0.70357 1.81577,1.05534 3.16427,1.05534 0.39282,0 0.77919,-0.0457 1.15911,-0.13719 0.3811,-0.0921 0.76102,-0.22925 1.13918,-0.41275" /><path
       inkscape:connector-curvature="0"
       id="path3064"
       style="fill:#000000;fill-opacity:1;fill-rule:nonzero;stroke:none;stroke-width:0.05863009"
       d="m 216.08306,126.18152 v -0.69829 h -5.77859 c 0.0586,-0.59627 0.2656,-1.04361 0.62148,-1.34145 0.35647,-0.29843 0.85483,-0.44735 1.4939,-0.44735 0.51594,0 1.0442,0.0797 1.58418,0.23862 0.54057,0.15889 1.0958,0.40045 1.66627,0.72467 v -1.7888 c -0.56754,-0.27205 -1.13508,-0.47784 -1.70262,-0.61679 -0.56754,-0.13896 -1.13566,-0.20873 -1.70496,-0.20873 -1.35846,0 -2.41497,0.34885 -3.16837,1.04714 -0.75281,0.69887 -1.12863,1.68034 -1.12863,2.94264 0,1.24003 0.3723,2.21446 1.11749,2.92388 0.74519,0.71119 1.77063,1.0659 3.07632,1.0659 1.18843,0 2.13941,-0.34885 2.85294,-1.04655 0.71353,-0.69652 1.07059,-1.62815 1.07059,-2.79489 m -2.33876,0.81495 c 0,0.41276 -0.1454,0.74519 -0.43679,0.9973 -0.29081,0.2527 -0.67073,0.37875 -1.13919,0.37875 -0.5089,0 -0.92225,-0.11843 -1.24061,-0.35471 -0.3166,-0.23686 -0.51418,-0.57692 -0.59333,-1.02134 h 3.40992" /><path
       inkscape:connector-curvature="0"
       id="path3118"
       style="fill:#000000;fill-opacity:1;fill-rule:nonzero;stroke:none;stroke-width:0.05863009"
       d="m 183.86348,154.05635 c 0,0.18761 0.0662,0.34943 0.19817,0.48545 0.13309,0.13602 0.29197,0.20462 0.47724,0.20462 0.19172,0 0.35706,-0.0686 0.49426,-0.20462 0.13778,-0.13602 0.20637,-0.29784 0.20637,-0.48545 0,-0.19114 -0.068,-0.35296 -0.20403,-0.48605 -0.13485,-0.13367 -0.30018,-0.19993 -0.49659,-0.19993 -0.19231,0 -0.35296,0.0645 -0.48136,0.19348 -0.12898,0.13016 -0.19406,0.29433 -0.19406,0.4925 m 0.68597,3.02883 c -0.46142,0 -0.80616,-0.25563 -1.03424,-0.76513 -0.22631,-0.51066 -0.33946,-1.2881 -0.33946,-2.33289 0,-1.04185 0.11315,-1.81812 0.33946,-2.3282 0.22808,-0.51008 0.57282,-0.76512 1.03424,-0.76512 0.46435,0 0.80968,0.25504 1.03658,0.76512 0.22748,0.51008 0.34123,1.28635 0.34123,2.3282 0,1.04479 -0.11375,1.82223 -0.34123,2.33289 -0.2269,0.5095 -0.57223,0.76513 -1.03658,0.76513 m 0,0.82551 c 0.81554,0 1.43233,-0.33126 1.85095,-0.9932 0.41862,-0.66076 0.62793,-1.63753 0.62793,-2.93033 0,-1.28986 -0.20931,-2.26546 -0.62793,-2.92798 -0.41862,-0.66077 -1.03541,-0.99085 -1.85095,-0.99085 -0.81672,0 -1.43409,0.33008 -1.85095,0.99085 -0.41569,0.66252 -0.62324,1.63812 -0.62324,2.92798 0,1.2928 0.20755,2.26957 0.62324,2.93033 0.41686,0.66194 1.03423,0.9932 1.85095,0.9932" /><path
       inkscape:connector-curvature="0"
       id="path3120"
       style="fill:#000000;fill-opacity:1;fill-rule:nonzero;stroke:none;stroke-width:0.05863009"
       d="m 190.25591,150.20552 h 1.23834 v 1.51339 h -1.23834 z" /><path
       inkscape:connector-curvature="0"
       id="path3122"
       style="fill:#000000;fill-opacity:1;fill-rule:nonzero;stroke:none;stroke-width:0.05863009"
       d="m 196.64835,150.20552 h 1.23834 v 1.51339 h -1.23834 z" /><path
       inkscape:connector-curvature="0"
       id="path3124"
       style="fill:#000000;fill-opacity:1;fill-rule:nonzero;stroke:none;stroke-width:0.05863009"
       d="m 206.06786,156.57334 -1.88085,-1.00199 1.88085,-1.00785 -0.29901,-0.5054 -1.76477,1.04948 v -1.87499 h -0.55053 v 1.87499 l -1.76477,-1.04948 -0.29901,0.5054 1.88144,1.00785 -1.88144,1.00199 0.29901,0.51184 1.76477,-1.0489 v 1.87441 h 0.55053 v -1.87441 l 1.76477,1.0489 0.29901,-0.51184" /><path
       inkscape:connector-curvature="0"
       id="path3128"
       style="fill:#000000;fill-opacity:1;fill-rule:nonzero;stroke:none;stroke-width:0.05863009"
       d="m 163.12389,95.84758 h 1.65102 v 5.91619 l -1.7888,-0.41293 v 0.82563 l 1.80405,0.41269 h 1.08583 v -6.74158 h 1.65102 v -0.82563 h -4.40312 v 0.82563" /><path
       inkscape:connector-curvature="0"
       id="path3130"
       style="fill:#000000;fill-opacity:1;fill-rule:nonzero;stroke:none;stroke-width:0.05863009"
       d="m 337.89973,34.539481 c 0,0.18779 0.0662,0.34973 0.19817,0.48598 0.13309,0.13609 0.29198,0.2041 0.47725,0.2041 0.19172,0 0.35647,-0.068 0.49425,-0.2041 0.13778,-0.13625 0.20638,-0.29819 0.20638,-0.48598 0,-0.19055 -0.068,-0.35243 -0.20462,-0.48575 -0.13426,-0.13327 -0.30018,-0.19993 -0.49601,-0.19993 -0.1923,0 -0.35295,0.0646 -0.48194,0.19354 -0.12898,0.13028 -0.19348,0.2945 -0.19348,0.49214 m 0.68598,3.029073 c -0.46142,0 -0.80617,-0.2551 -1.03424,-0.76536 -0.22631,-0.51008 -0.33947,-1.28758 -0.33947,-2.332423 0,-1.0418 0.11316,-1.81795 0.33947,-2.32821 0.22807,-0.51031 0.57282,-0.76518 1.03424,-0.76518 0.46435,0 0.80968,0.25487 1.03599,0.76518 0.22807,0.51026 0.34181,1.28641 0.34181,2.32821 0,1.044843 -0.11374,1.822343 -0.34181,2.332423 -0.22631,0.51026 -0.57164,0.76536 -1.03599,0.76536 m 0,0.82539 c 0.81554,0 1.43233,-0.33091 1.85095,-0.99302 0.41862,-0.66076 0.62793,-1.63754 0.62793,-2.930153 0,-1.28987 -0.20931,-2.26594 -0.62793,-2.92805 -0.41862,-0.66053 -1.03541,-0.99097 -1.85095,-0.99097 -0.81672,0 -1.4341,0.33044 -1.85096,0.99097 -0.41568,0.66211 -0.62323,1.63818 -0.62323,2.92805 0,1.292613 0.20755,2.269393 0.62323,2.930153 0.41686,0.66211 1.03424,0.99302 1.85096,0.99302" /><path
       inkscape:connector-curvature="0"
       id="path3132"
       style="fill:#000000;fill-opacity:1;fill-rule:nonzero;stroke:none;stroke-width:0.05863009"
       d="m 344.29217,30.689361 h 1.23833 v 1.51339 h -1.23833 z" /><path
       inkscape:connector-curvature="0"
       id="path3134"
       style="fill:#000000;fill-opacity:1;fill-rule:nonzero;stroke:none;stroke-width:0.05863009"
       d="m 350.68461,30.689361 h 1.2381 v 1.51339 h -1.2381 z" /><path
       inkscape:connector-curvature="0"
       id="path3136"
       style="fill:#000000;fill-opacity:1;fill-rule:nonzero;stroke:none;stroke-width:0.05863009"
       d="m 360.10412,37.056944 -1.88144,-1.00175 1.88144,-1.008383 -0.29901,-0.50504 -1.76477,1.048953 v -1.874583 h -0.55054 v 1.874583 l -1.76476,-1.048953 -0.29902,0.50504 1.88144,1.008383 -1.88144,1.00175 0.29902,0.51161 1.76476,-1.04913 v 1.87452 h 0.55054 v -1.87452 l 1.76477,1.04913 0.29901,-0.51161" /><path
       inkscape:connector-curvature="0"
       id="path3138"
       style="fill:none;stroke:#000000;stroke-width:1.60000002;stroke-linecap:butt;stroke-linejoin:miter;stroke-miterlimit:10;stroke-dasharray:none;stroke-opacity:1"
       d="m 235.58521,243.0548 h 89.55636" /><path
       inkscape:connector-curvature="0"
       id="path3140"
       style="fill:#000000;fill-opacity:1;fill-rule:nonzero;stroke:none;stroke-width:0.05863009"
       d="m 166.42402,211.891 h 1.65102 v 5.91636 l -1.7888,-0.41275 v 0.82551 l 1.80346,0.41275 h 1.08583 V 211.891 h 1.65102 v -0.82551 h -4.40253 v 0.82551" /><path
       inkscape:connector-curvature="0"
       id="path3142"
       style="fill:#000000;fill-opacity:1;fill-rule:nonzero;stroke:none;stroke-width:0.05863009"
       d="m 31.586965,35.29243 c 0,0.18761 0.0657,0.34943 0.19758,0.48604 0.13309,0.13602 0.29256,0.20403 0.47725,0.20403 0.19172,0 0.35705,-0.068 0.49484,-0.20403 0.13719,-0.13661 0.20579,-0.29843 0.20579,-0.48604 0,-0.19055 -0.068,-0.35237 -0.20404,-0.48605 -0.13484,-0.13309 -0.30018,-0.19993 -0.49659,-0.19993 -0.19231,0 -0.35237,0.0651 -0.48136,0.19348 -0.12898,0.13075 -0.19347,0.29491 -0.19347,0.4925 m 0.68597,3.02883 c -0.46201,0 -0.80617,-0.25504 -1.03424,-0.76513 -0.22631,-0.51008 -0.33947,-1.28751 -0.33947,-2.3323 0,-1.04186 0.11316,-1.81812 0.33947,-2.3282 0.22807,-0.51008 0.57223,-0.76512 1.03424,-0.76512 0.46376,0 0.80909,0.25504 1.03599,0.76512 0.22749,0.51008 0.34181,1.28634 0.34181,2.3282 0,1.04479 -0.11432,1.82222 -0.34181,2.3323 -0.2269,0.51009 -0.57223,0.76513 -1.03599,0.76513 m 0,0.82609 c 0.81496,0 1.43174,-0.33126 1.85036,-0.99378 0.41862,-0.66076 0.62793,-1.63695 0.62793,-2.92974 0,-1.28986 -0.20931,-2.26605 -0.62793,-2.92799 -0.41862,-0.66076 -1.0354,-0.99143 -1.85036,-0.99143 -0.81731,0 -1.43409,0.33067 -1.85154,0.99143 -0.4151,0.66194 -0.62324,1.63813 -0.62324,2.92799 0,1.29279 0.20814,2.26898 0.62324,2.92974 0.41745,0.66252 1.03423,0.99378 1.85154,0.99378" /><path
       inkscape:connector-curvature="0"
       id="path3144"
       style="fill:#000000;fill-opacity:1;fill-rule:nonzero;stroke:none;stroke-width:0.05863009"
       d="m 37.979395,31.44219 h 1.23811 v 1.51339 h -1.23811 z" /><path
       inkscape:connector-curvature="0"
       id="path3146"
       style="fill:#000000;fill-opacity:1;fill-rule:nonzero;stroke:none;stroke-width:0.05863009"
       d="m 44.371255,31.44219 h 1.23833 v 1.51339 h -1.23833 z" /><path
       inkscape:connector-curvature="0"
       id="path3148"
       style="fill:#000000;fill-opacity:1;fill-rule:nonzero;stroke:none;stroke-width:0.05863009"
       d="m 49.663205,32.2677 h 1.65102 v 5.91636 l -1.7888,-0.41275 v 0.82551 l 1.80405,0.41275 h 1.08582 V 32.2677 h 1.65103 v -0.82551 h -4.40312 v 0.82551" /><path
       style="fill:none;stroke:#000000;stroke-width:1.60000002;stroke-linecap:butt;stroke-linejoin:miter;stroke-miterlimit:4;stroke-dasharray:none;stroke-opacity:1"
       d="m 176.98604,106.37027 0.0215,-59.999166"
       id="path4763"
       inkscape:connector-curvature="0" /><path
       inkscape:connector-curvature="0"
       id="path3092-6-2"
       style="fill:#ffffff;fill-opacity:1;fill-rule:nonzero;stroke:none;stroke-width:0.05863009"
       d="M 266.12996,68.456349 H 382.46495 V 101.69481 H 266.12996 Z" /><path
       inkscape:connector-curvature="0"
       id="path3094-7-6"
       style="fill:#ff0000;fill-opacity:1;stroke:#000000;stroke-width:1.78118002;stroke-linecap:butt;stroke-linejoin:miter;stroke-miterlimit:10;stroke-dasharray:none;stroke-opacity:1"
       d="M 266.18959,68.515975 H 382.40532 V 106.73479 H 266.18959 Z" /><text
       transform="scale(1,-1)"
       id="text4815-1"
       y="-83.652275"
       x="287.14832"
       style="font-style:normal;font-weight:normal;font-size:32px;line-height:1.25;font-family:sans-serif;letter-spacing:0px;word-spacing:0px;fill:#000000;fill-opacity:1;stroke:none;stroke-width:0.80000001"
       xml:space="preserve"><tspan
         style="font-style:normal;font-variant:normal;font-weight:bold;font-stretch:normal;font-size:14.9333334px;font-family:sans-serif;-inkscape-font-specification:'sans-serif Bold';stroke-width:0.80000001"
         y="-83.652275"
         x="287.14832"
         id="tspan4813-0"
         sodipodi:role="line">attribute</tspan></text>
<path
       inkscape:connector-curvature="0"
       id="path3092-6-1"
       style="fill:#ffffff;fill-opacity:1;fill-rule:nonzero;stroke:none;stroke-width:0.05863009"
       d="m 266.22962,184.04373 h 116.33499 v 33.23846 H 266.22962 Z" /><path
       inkscape:connector-curvature="0"
       id="path3094-7-5"
       style="fill:#ff0000;fill-opacity:1;stroke:#000000;stroke-width:1.78118002;stroke-linecap:butt;stroke-linejoin:miter;stroke-miterlimit:10;stroke-dasharray:none;stroke-opacity:1"
       d="m 266.28925,184.10336 h 116.21573 v 38.21882 H 266.28925 Z" /><text
       transform="scale(1,-1)"
       id="text4815-9"
       y="-199.23973"
       x="287.24799"
       style="font-style:normal;font-weight:normal;font-size:32px;line-height:1.25;font-family:sans-serif;letter-spacing:0px;word-spacing:0px;fill:#000000;fill-opacity:1;stroke:none;stroke-width:0.80000001"
       xml:space="preserve"><tspan
         style="font-style:normal;font-variant:normal;font-weight:bold;font-stretch:normal;font-size:14.9333334px;font-family:sans-serif;-inkscape-font-specification:'sans-serif Bold';stroke-width:0.80000001"
         y="-199.23973"
         x="287.24799"
         id="tspan4813-4"
         sodipodi:role="line">attribute</tspan></text>
<path
       inkscape:connector-curvature="0"
       id="path3092-6-2-1"
       style="fill:#ffff00;fill-opacity:1;fill-rule:nonzero;stroke:none;stroke-width:0.06431764"
       d="m 412.28582,67.77817 h 116.33499 v 40 H 412.28582 Z" /><path
       inkscape:connector-curvature="0"
       id="path3094-7-6-5"
       style="fill:none;stroke:#000000;stroke-width:1.78118002;stroke-linecap:butt;stroke-linejoin:miter;stroke-miterlimit:10;stroke-dasharray:none;stroke-opacity:1"
       d="m 412.34544,67.83779 h 116.21575 v 38.21882 H 412.34544 Z" /><text
       transform="scale(1,-1)"
       id="text4815-1-9"
       y="-89.916557"
       x="470.01746"
       style="font-style:normal;font-weight:normal;font-size:32px;line-height:12.78992081px;font-family:sans-serif;text-align:center;letter-spacing:0px;word-spacing:0px;text-anchor:middle;fill:#000000;fill-opacity:1;stroke:none;stroke-width:0.80000001"
       xml:space="preserve"><tspan
         id="tspan5187"
         style="font-style:normal;font-variant:normal;font-weight:bold;font-stretch:normal;font-size:14.9333334px;line-height:12.78992081px;font-family:sans-serif;-inkscape-font-specification:'sans-serif Bold';text-align:center;text-anchor:middle;stroke-width:0.80000001"
         y="-89.916557"
         x="470.01746"
         sodipodi:role="line">debug</tspan><tspan
         id="tspan5191"
         style="font-style:normal;font-variant:normal;font-weight:bold;font-stretch:normal;font-size:14.9333334px;line-height:12.78992081px;font-family:sans-serif;-inkscape-font-specification:'sans-serif Bold';text-align:center;text-anchor:middle;stroke-width:0.80000001"
         y="-72.693306"
         x="470.01746"
         sodipodi:role="line">attribute</tspan></text>
<path
       inkscape:connector-curvature="0"
       id="path3118-6"
       style="fill:#000000;fill-opacity:1;fill-rule:nonzero;stroke:none;stroke-width:0.05863009"
       d="m 330.65787,234.36854 c 0,0.18761 0.0662,0.34943 0.19817,0.48545 0.13309,0.13602 0.29197,0.20462 0.47724,0.20462 0.19172,0 0.35706,-0.0686 0.49426,-0.20462 0.13778,-0.13602 0.20637,-0.29784 0.20637,-0.48545 0,-0.19114 -0.068,-0.35296 -0.20403,-0.48605 -0.13485,-0.13367 -0.30018,-0.19993 -0.49659,-0.19993 -0.19231,0 -0.35296,0.0645 -0.48136,0.19348 -0.12898,0.13016 -0.19406,0.29433 -0.19406,0.4925 m 0.68597,3.02883 c -0.46142,0 -0.80616,-0.25563 -1.03424,-0.76513 -0.22631,-0.51066 -0.33946,-1.2881 -0.33946,-2.33289 0,-1.04185 0.11315,-1.81812 0.33946,-2.3282 0.22808,-0.51008 0.57282,-0.76512 1.03424,-0.76512 0.46435,0 0.80968,0.25504 1.03658,0.76512 0.22748,0.51008 0.34123,1.28635 0.34123,2.3282 0,1.04479 -0.11375,1.82223 -0.34123,2.33289 -0.2269,0.5095 -0.57223,0.76513 -1.03658,0.76513 m 0,0.82551 c 0.81554,0 1.43233,-0.33126 1.85095,-0.9932 0.41862,-0.66076 0.62793,-1.63753 0.62793,-2.93033 0,-1.28986 -0.20931,-2.26546 -0.62793,-2.92798 -0.41862,-0.66077 -1.03541,-0.99085 -1.85095,-0.99085 -0.81672,0 -1.43409,0.33008 -1.85095,0.99085 -0.41569,0.66252 -0.62324,1.63812 -0.62324,2.92798 0,1.2928 0.20755,2.26957 0.62324,2.93033 0.41686,0.66194 1.03423,0.9932 1.85095,0.9932" /><path
       inkscape:connector-curvature="0"
       id="path3120-3"
       style="fill:#000000;fill-opacity:1;fill-rule:nonzero;stroke:none;stroke-width:0.05863009"
       d="m 337.0503,230.51771 h 1.23834 v 1.51339 h -1.23834 z" /><path
       inkscape:connector-curvature="0"
       id="path3122-9"
       style="fill:#000000;fill-opacity:1;fill-rule:nonzero;stroke:none;stroke-width:0.05863009"
       d="m 343.44274,230.51771 h 1.23834 v 1.51339 h -1.23834 z" /><path
       inkscape:connector-curvature="0"
       id="path3124-4"
       style="fill:#000000;fill-opacity:1;fill-rule:nonzero;stroke:none;stroke-width:0.05863009"
       d="m 352.86225,236.88553 -1.88085,-1.00199 1.88085,-1.00785 -0.29901,-0.5054 -1.76477,1.04948 v -1.87499 h -0.55053 v 1.87499 l -1.76477,-1.04948 -0.29901,0.5054 1.88144,1.00785 -1.88144,1.00199 0.29901,0.51184 1.76477,-1.0489 v 1.87441 h 0.55053 v -1.87441 l 1.76477,1.0489 0.29901,-0.51184" /><path
       inkscape:connector-curvature="0"
       id="path3138-8"
       style="fill:none;stroke:#000000;stroke-width:1.60000002;stroke-linecap:butt;stroke-linejoin:miter;stroke-miterlimit:10;stroke-dasharray:none;stroke-opacity:1"
       d="m 235.17496,126.36027 h 89.55636" /><path
       inkscape:connector-curvature="0"
       id="path3138-8-2"
       style="fill:none;stroke:#000000;stroke-width:1.5913589;stroke-linecap:butt;stroke-linejoin:miter;stroke-miterlimit:10;stroke-dasharray:none;stroke-opacity:1"
       d="m 324.73132,126.36027 h 145.4753" /><path
       style="fill:none;stroke:#000000;stroke-width:1.60000002;stroke-linecap:butt;stroke-linejoin:miter;stroke-miterlimit:4;stroke-dasharray:none;stroke-opacity:1"
       d="m 470.17164,126.94193 0.0696,-19.99139"
       id="path4763-73-1-9"
       inkscape:connector-curvature="0" /><path
       inkscape:connector-curvature="0"
       id="path3138-8-3"
       style="fill:none;stroke:#000000;stroke-width:1.61872077;stroke-linecap:butt;stroke-linejoin:miter;stroke-miterlimit:10;stroke-dasharray:none;stroke-opacity:1"
       d="M 24.066757,45.52875 H 329.32314" /><path
       inkscape:connector-curvature="0"
       id="path3092-6-2-8"
       style="fill:#ff0000;fill-opacity:1;fill-rule:nonzero;stroke:none;stroke-width:0.06431764"
       d="m 420.73509,-48.06129 h 116.33499 v 40 H 420.73509 Z" /><path
       inkscape:connector-curvature="0"
       id="path3094-7-6-50"
       style="fill:none;stroke:#000000;stroke-width:1.78118002;stroke-linecap:butt;stroke-linejoin:miter;stroke-miterlimit:10;stroke-dasharray:none;stroke-opacity:1"
       d="m 420.79472,-48.001664 h 116.21573 v 38.21882 H 420.79472 Z" /><text
       transform="scale(1,-1)"
       id="text4815-1-96"
       y="34.465385"
       x="440.15341"
       style="font-style:normal;font-weight:normal;font-size:32px;line-height:1.25;font-family:sans-serif;letter-spacing:0px;word-spacing:0px;fill:#000000;fill-opacity:1;stroke:none;stroke-width:0.80000001"
       xml:space="preserve"><tspan
         style="font-style:normal;font-variant:normal;font-weight:bold;font-stretch:normal;font-size:14.9333334px;font-family:sans-serif;-inkscape-font-specification:'sans-serif Bold';stroke-width:0.80000001"
         y="34.465385"
         x="440.15341"
         id="tspan4813-0-3"
         sodipodi:role="line">attribute</tspan></text>
<path
       inkscape:connector-curvature="0"
       id="path3138-8-8"
       style="fill:none;stroke:#000000;stroke-width:1.23818004;stroke-linecap:butt;stroke-linejoin:miter;stroke-miterlimit:10;stroke-dasharray:none;stroke-opacity:1"
       d="m 389.78009,8.242638 h 89.55636" /><path
       style="fill:none;stroke:#000000;stroke-width:1.60000002;stroke-linecap:butt;stroke-linejoin:miter;stroke-miterlimit:4;stroke-dasharray:none;stroke-opacity:1"
       d="m 478.69331,7.474158 0.0853,-15.99781"
       id="path4763-73-1-5"
       inkscape:connector-curvature="0" /><path
       inkscape:connector-curvature="0"
       id="path3092-6-2-8-1"
       style="fill:#ffffff;fill-opacity:1;fill-rule:nonzero;stroke:none;stroke-width:0.05863009"
       d="m 114.64099,-47.73762 h 116.33499 v 33.23846 H 114.64099 Z" /><path
       inkscape:connector-curvature="0"
       id="path3094-7-6-50-1"
       style="fill:#ff0000;fill-opacity:1;stroke:#000000;stroke-width:1.78118002;stroke-linecap:butt;stroke-linejoin:miter;stroke-miterlimit:10;stroke-dasharray:none;stroke-opacity:1"
       d="m 114.70062,-47.677994 h 116.21573 v 38.21882 H 114.70062 Z" /><text
       transform="scale(1,-1)"
       id="text4815-1-96-5"
       y="34.141716"
       x="134.05939"
       style="font-style:normal;font-weight:normal;font-size:32px;line-height:1.25;font-family:sans-serif;letter-spacing:0px;word-spacing:0px;fill:#000000;fill-opacity:1;stroke:none;stroke-width:0.80000001"
       xml:space="preserve"><tspan
         style="font-style:normal;font-variant:normal;font-weight:bold;font-stretch:normal;font-size:14.9333334px;font-family:sans-serif;-inkscape-font-specification:'sans-serif Bold';stroke-width:0.80000001"
         y="34.141716"
         x="134.05939"
         id="tspan4813-0-3-9"
         sodipodi:role="line">attribute</tspan></text>
<path
       inkscape:connector-curvature="0"
       id="path3138-8-8-8"
       style="fill:none;stroke:#000000;stroke-width:1.23818004;stroke-linecap:butt;stroke-linejoin:miter;stroke-miterlimit:10;stroke-dasharray:none;stroke-opacity:1"
       d="M 83.685991,6.966304 H 173.24235" /><path
       style="fill:none;stroke:#000000;stroke-width:1.60000002;stroke-linecap:butt;stroke-linejoin:miter;stroke-miterlimit:4;stroke-dasharray:none;stroke-opacity:1"
       d="m 172.59921,6.197824 0.0853,-15.99781"
       id="path4763-73-1-5-4"
       inkscape:connector-curvature="0" /><path
       inkscape:connector-curvature="0"
       id="path3118-6-7"
       style="fill:#000000;fill-opacity:1;fill-rule:nonzero;stroke:none;stroke-width:0.05863009"
       d="m 330.22106,115.01824 c 0,0.18761 0.0662,0.34943 0.19817,0.48545 0.13309,0.13602 0.29197,0.20462 0.47724,0.20462 0.19172,0 0.35706,-0.0686 0.49426,-0.20462 0.13778,-0.13602 0.20637,-0.29784 0.20637,-0.48545 0,-0.19114 -0.068,-0.35296 -0.20403,-0.48605 -0.13485,-0.13367 -0.30018,-0.19993 -0.49659,-0.19993 -0.19231,0 -0.35296,0.0645 -0.48136,0.19348 -0.12898,0.13016 -0.19406,0.29433 -0.19406,0.4925 m 0.68597,3.02883 c -0.46142,0 -0.80616,-0.25563 -1.03424,-0.76513 -0.22631,-0.51066 -0.33946,-1.2881 -0.33946,-2.33289 0,-1.04185 0.11315,-1.81812 0.33946,-2.3282 0.22808,-0.51008 0.57282,-0.76512 1.03424,-0.76512 0.46435,0 0.80968,0.25504 1.03658,0.76512 0.22748,0.51008 0.34123,1.28635 0.34123,2.3282 0,1.04479 -0.11375,1.82223 -0.34123,2.33289 -0.2269,0.5095 -0.57223,0.76513 -1.03658,0.76513 m 0,0.82551 c 0.81554,0 1.43233,-0.33126 1.85095,-0.9932 0.41862,-0.66076 0.62793,-1.63753 0.62793,-2.93033 0,-1.28986 -0.20931,-2.26546 -0.62793,-2.92798 -0.41862,-0.66077 -1.03541,-0.99085 -1.85095,-0.99085 -0.81672,0 -1.43409,0.33008 -1.85095,0.99085 -0.41569,0.66252 -0.62324,1.63812 -0.62324,2.92798 0,1.2928 0.20755,2.26957 0.62324,2.93033 0.41686,0.66194 1.03423,0.9932 1.85095,0.9932" /><path
       inkscape:connector-curvature="0"
       id="path3120-3-7"
       style="fill:#000000;fill-opacity:1;fill-rule:nonzero;stroke:none;stroke-width:0.05863009"
       d="m 331.81349,111.16741 h 1.23834 v 1.51339 h -1.23834 z" /><path
       inkscape:connector-curvature="0"
       id="path3122-9-6"
       style="fill:#000000;fill-opacity:1;fill-rule:nonzero;stroke:none;stroke-width:0.05863009"
       d="m 338.20593,111.16741 h 1.23834 v 1.51339 h -1.23834 z" /><path
       inkscape:connector-curvature="0"
       id="path3124-4-4"
       style="fill:#000000;fill-opacity:1;fill-rule:nonzero;stroke:none;stroke-width:0.05863009"
       d="m 352.42544,117.53523 -1.88085,-1.00199 1.88085,-1.00785 -0.29901,-0.5054 -1.76477,1.04948 v -1.87499 h -0.55053 v 1.87499 l -1.76477,-1.04948 -0.29901,0.5054 1.88144,1.00785 -1.88144,1.00199 0.29901,0.51184 1.76477,-1.0489 v 1.87441 h 0.55053 v -1.87441 l 1.76477,1.0489 0.29901,-0.51184" /><path
       inkscape:connector-curvature="0"
       id="path3118-6-7-3"
       style="fill:#000000;fill-opacity:1;fill-rule:nonzero;stroke:none;stroke-width:0.05863009"
       d="m 477.56772,113.71845 c 0,0.18761 0.0662,0.34943 0.19817,0.48545 0.13309,0.13602 0.29197,0.20462 0.47724,0.20462 0.19172,0 0.35706,-0.0686 0.49426,-0.20462 0.13778,-0.13602 0.20637,-0.29784 0.20637,-0.48545 0,-0.19114 -0.068,-0.35296 -0.20403,-0.48605 -0.13485,-0.13367 -0.30018,-0.19993 -0.49659,-0.19993 -0.19231,0 -0.35296,0.0645 -0.48136,0.19348 -0.12898,0.13016 -0.19406,0.29433 -0.19406,0.4925 m 0.68597,3.02883 c -0.46142,0 -0.80616,-0.25563 -1.03424,-0.76513 -0.22631,-0.51066 -0.33946,-1.2881 -0.33946,-2.33289 0,-1.04185 0.11315,-1.81812 0.33946,-2.3282 0.22808,-0.51008 0.57282,-0.76512 1.03424,-0.76512 0.46435,0 0.80968,0.25504 1.03658,0.76512 0.22748,0.51008 0.34123,1.28635 0.34123,2.3282 0,1.04479 -0.11375,1.82223 -0.34123,2.33289 -0.2269,0.5095 -0.57223,0.76513 -1.03658,0.76513 m 0,0.82551 c 0.81554,0 1.43233,-0.33126 1.85095,-0.9932 0.41862,-0.66076 0.62793,-1.63753 0.62793,-2.93033 0,-1.28986 -0.20931,-2.26546 -0.62793,-2.92798 -0.41862,-0.66077 -1.03541,-0.99085 -1.85095,-0.99085 -0.81672,0 -1.43409,0.33008 -1.85095,0.99085 -0.41569,0.66252 -0.62324,1.63812 -0.62324,2.92798 0,1.2928 0.20755,2.26957 0.62324,2.93033 0.41686,0.66194 1.03423,0.9932 1.85095,0.9932" /><path
       inkscape:connector-curvature="0"
       id="path3120-3-7-0"
       style="fill:#000000;fill-opacity:1;fill-rule:nonzero;stroke:none;stroke-width:0.05863009"
       d="m 483.96015,109.86762 h 1.23834 v 1.51339 h -1.23834 z" /><path
       inkscape:connector-curvature="0"
       id="path3122-9-6-3"
       style="fill:#000000;fill-opacity:1;fill-rule:nonzero;stroke:none;stroke-width:0.05863009"
       d="m 490.35259,109.86762 h 1.23834 v 1.51339 h -1.23834 z" /><path
       inkscape:connector-curvature="0"
       id="path3124-4-4-0"
       style="fill:#000000;fill-opacity:1;fill-rule:nonzero;stroke:none;stroke-width:0.05863009"
       d="m 499.7721,116.23544 -1.88085,-1.00199 1.88085,-1.00785 -0.29901,-0.5054 -1.76477,1.04948 v -1.87499 h -0.55053 v 1.87499 l -1.76477,-1.04948 -0.29901,0.5054 1.88144,1.00785 -1.88144,1.00199 0.29901,0.51184 1.76477,-1.0489 v 1.87441 h 0.55053 v -1.87441 l 1.76477,1.0489 0.29901,-0.51184" /><path
       inkscape:connector-curvature="0"
       id="path3118-6-7-9"
       style="fill:#000000;fill-opacity:1;fill-rule:nonzero;stroke:none;stroke-width:0.05863009"
       d="m 485.56772,-0.90109 c 0,0.18761 0.0662,0.34943 0.19817,0.48545 0.13309,0.13602 0.29197,0.20462 0.47724,0.20462 0.19172,0 0.35706,-0.0686 0.49426,-0.20462 0.13778,-0.13602 0.20637,-0.29784 0.20637,-0.48545 0,-0.19114 -0.068,-0.35296 -0.20403,-0.48605 -0.13485,-0.13367 -0.30018,-0.19993 -0.49659,-0.19993 -0.19231,0 -0.35296,0.0645 -0.48136,0.19348 -0.12898,0.13016 -0.19406,0.29433 -0.19406,0.4925 m 0.68597,3.02883 c -0.46142,0 -0.80616,-0.25563 -1.03424,-0.76513 -0.22631,-0.51066 -0.33946,-1.2881 -0.33946,-2.33289 0,-1.04185 0.11315,-1.81812 0.33946,-2.3282 0.22808,-0.51008 0.57282,-0.76512 1.03424,-0.76512 0.46435,0 0.80968,0.25504 1.03658,0.76512 0.22748,0.51008 0.34123,1.28635 0.34123,2.3282 0,1.04479 -0.11375,1.82223 -0.34123,2.33289 -0.2269,0.5095 -0.57223,0.76513 -1.03658,0.76513 m 0,0.82551 c 0.81554,0 1.43233,-0.33126 1.85095,-0.9932 0.41862,-0.66076 0.62793,-1.63753 0.62793,-2.93033 0,-1.28986 -0.20931,-2.26546 -0.62793,-2.92798 -0.41862,-0.66077 -1.03541,-0.99085 -1.85095,-0.99085 -0.81672,0 -1.43409,0.33008 -1.85095,0.99085 -0.41569,0.66252 -0.62324,1.63812 -0.62324,2.92798 0,1.2928 0.20755,2.26957 0.62324,2.93033 0.41686,0.66194 1.03423,0.9932 1.85095,0.9932" /><path
       inkscape:connector-curvature="0"
       id="path3120-3-7-2"
       style="fill:#000000;fill-opacity:1;fill-rule:nonzero;stroke:none;stroke-width:0.05863009"
       d="m 491.96015,-4.75192 h 1.23834 v 1.51339 h -1.23834 z" /><path
       inkscape:connector-curvature="0"
       id="path3122-9-6-5"
       style="fill:#000000;fill-opacity:1;fill-rule:nonzero;stroke:none;stroke-width:0.05863009"
       d="m 498.35259,-4.75192 h 1.23834 v 1.51339 h -1.23834 z" /><path
       inkscape:connector-curvature="0"
       id="path3124-4-4-4"
       style="fill:#000000;fill-opacity:1;fill-rule:nonzero;stroke:none;stroke-width:0.05863009"
       d="m 507.7721,1.6159 -1.88085,-1.00199 1.88085,-1.00785 -0.29901,-0.5054 -1.76477,1.04948 v -1.87499 h -0.55053 v 1.87499 l -1.76477,-1.04948 -0.29901,0.5054 1.88144,1.00785 -1.88144,1.00199 0.29901,0.51184 1.76477,-1.0489 v 1.87441 h 0.55053 V 1.07884 l 1.76477,1.0489 0.29901,-0.51184" /><path
       inkscape:connector-curvature="0"
       id="path3118-6-7-0"
       style="fill:#000000;fill-opacity:1;fill-rule:nonzero;stroke:none;stroke-width:0.05863009"
       d="m 183.31828,-1.178899 c 0,0.18761 0.0662,0.34943 0.19817,0.48545 0.13309,0.13602 0.29197,0.20462 0.47724,0.20462 0.19172,0 0.35706,-0.0686 0.49426,-0.20462 0.13778,-0.13602 0.20637,-0.29784 0.20637,-0.48545 0,-0.19114 -0.068,-0.35296 -0.20403,-0.48605 -0.13485,-0.13367 -0.30018,-0.19993 -0.49659,-0.19993 -0.19231,0 -0.35296,0.0645 -0.48136,0.19348 -0.12898,0.13016 -0.19406,0.29433 -0.19406,0.4925 m 0.68597,3.02883 c -0.46142,0 -0.80616,-0.25563 -1.03424,-0.76513 -0.22631,-0.51066 -0.33946,-1.2881 -0.33946,-2.33289 0,-1.04185 0.11315,-1.81812 0.33946,-2.3282 0.22808,-0.51008 0.57282,-0.76512 1.03424,-0.76512 0.46435,0 0.80968,0.25504 1.03658,0.76512 0.22748,0.51008 0.34123,1.28635 0.34123,2.3282 0,1.04479 -0.11375,1.82223 -0.34123,2.33289 -0.2269,0.5095 -0.57223,0.76513 -1.03658,0.76513 m 0,0.82551 c 0.81554,0 1.43233,-0.33126 1.85095,-0.9932 0.41862,-0.66076 0.62793,-1.63753 0.62793,-2.93033 0,-1.28986 -0.20931,-2.26546 -0.62793,-2.92798 -0.41862,-0.66077 -1.03541,-0.99085 -1.85095,-0.99085 -0.81672,0 -1.43409,0.33008 -1.85095,0.99085 -0.41569,0.66252 -0.62324,1.63812 -0.62324,2.92798 0,1.2928 0.20755,2.26957 0.62324,2.93033 0.41686,0.66194 1.03423,0.9932 1.85095,0.9932" /><path
       inkscape:connector-curvature="0"
       id="path3120-3-7-5"
       style="fill:#000000;fill-opacity:1;fill-rule:nonzero;stroke:none;stroke-width:0.05863009"
       d="m 189.71071,-5.029729 h 1.23834 v 1.51339 h -1.23834 z" /><path
       inkscape:connector-curvature="0"
       id="path3122-9-6-9"
       style="fill:#000000;fill-opacity:1;fill-rule:nonzero;stroke:none;stroke-width:0.05863009"
       d="m 196.10315,-5.029729 h 1.23834 v 1.51339 h -1.23834 z" /><path
       inkscape:connector-curvature="0"
       id="path3124-4-4-46"
       style="fill:#000000;fill-opacity:1;fill-rule:nonzero;stroke:none;stroke-width:0.05863009"
       d="m 205.52266,1.338091 -1.88085,-1.00199 1.88085,-1.00785 -0.29901,-0.5054 -1.76477,1.04948 v -1.87499 h -0.55053 v 1.87499 l -1.76477,-1.04948 -0.29901,0.5054 1.88144,1.00785 -1.88144,1.00199 0.29901,0.51184 1.76477,-1.0489 v 1.87441 h 0.55053 v -1.87441 l 1.76477,1.0489 0.29901,-0.51184" /><path
       style="fill:none;stroke:#000000;stroke-width:1.6000098;stroke-linecap:butt;stroke-linejoin:miter;stroke-miterlimit:4;stroke-dasharray:none;stroke-opacity:1"
       d="m 325.14157,243.05784 0.0696,-19.99443"
       id="path4763-73-1-9-2"
       inkscape:connector-curvature="0" /><path
       style="fill:none;stroke:#000000;stroke-width:1.60000002;stroke-linecap:butt;stroke-linejoin:miter;stroke-miterlimit:4;stroke-dasharray:none;stroke-opacity:1"
       d="m 177.38487,227.06107 0.0162,-79.99943"
       id="path4763-2"
       inkscape:connector-curvature="0" /><path
       style="fill:none;stroke:#000000;stroke-width:1.60000002;stroke-linecap:butt;stroke-linejoin:miter;stroke-miterlimit:4;stroke-dasharray:none;stroke-opacity:1"
       d="m 324.73132,126.36027 0.0696,-19.99139"
       id="path4763-73-1-9-7"
       inkscape:connector-curvature="0" /><path
       style="fill:none;stroke:#000000;stroke-width:1.6156944;stroke-linecap:butt;stroke-linejoin:miter;stroke-miterlimit:4;stroke-dasharray:none;stroke-opacity:1"
       d="m 24.066757,45.52875 0.0696,-19.99139"
       id="path4763-73-1-9-7-4"
       inkscape:connector-curvature="0" /><path
       style="fill:none;stroke:#000000;stroke-width:1.6156944;stroke-linecap:butt;stroke-linejoin:miter;stroke-miterlimit:4;stroke-dasharray:none;stroke-opacity:1"
       d="m 329.32314,45.52875 0.0696,-19.991387"
       id="path4763-73-1-9-7-8"
       inkscape:connector-curvature="0" /><path
       style="fill:none;stroke:#000000;stroke-width:0.81404358;stroke-linecap:butt;stroke-linejoin:miter;stroke-miterlimit:4;stroke-dasharray:6.51234872, 0.81404359;stroke-dashoffset:0;stroke-opacity:1"
       d="m -37.497114,168.47621 c 2.980605,0 572.808954,-0.4045 572.808954,-0.4045"
       id="path5695"
       inkscape:connector-curvature="0"
       sodipodi:nodetypes="cc" /><text
       xml:space="preserve"
       style="font-style:normal;font-weight:normal;font-size:32px;line-height:1.25;font-family:sans-serif;letter-spacing:0px;word-spacing:0px;fill:#000000;fill-opacity:1;stroke:none;stroke-width:0.80000001"
       x="-34.191479"
       y="-154.26266"
       id="text5699"
       transform="scale(1,-1)"><tspan
         sodipodi:role="line"
         x="-34.191479"
         y="-154.26266"
         style="font-size:12.80000019px;line-height:0.25;stroke-width:0.80000001"
         id="tspan5703">kernel iio drivers</tspan></text>
<text
       xml:space="preserve"
       style="font-style:normal;font-weight:normal;font-size:32px;line-height:1.25;font-family:sans-serif;letter-spacing:0px;word-spacing:0px;fill:#000000;fill-opacity:1;stroke:none;stroke-width:0.80000001"
       x="-34.373482"
       y="-177.09644"
       id="text5699-6"
       transform="scale(1,-1)"><tspan
         sodipodi:role="line"
         x="-34.373482"
         y="-177.09644"
         style="font-size:12.80000019px;line-height:0.25;stroke-width:0.80000001"
         id="tspan5703-8">iiod</tspan></text>
</g></svg>