<svg id="Layer_1" data-name="Layer 1" xmlns="http://www.w3.org/2000/svg" viewBox="0 0 432 122.63"><defs><style>.cls-1{fill:#1668b3;}</style></defs><title>ADI-Logo-RGB-FullColor</title><path class="cls-1" d="M122.41,244.72V123.51H243V244.72Zm24.81-102.34v87l75.59-44.45ZM283.55,243.43H262.74v-54h20.94c15.5,0,24.81,12.28,24.81,27.92S300.22,243.43,283.55,243.43ZM302,177.14l-4.14-12H278l-3.62,12H263.52L281.74,123h11l20.42,54.14Zm-19.39,21.45h-8.53V235h9.18c12.14,0,13.95-10.34,13.82-18.22C297.11,210.61,294.14,198.59,282.64,198.59Zm11.5-44.32-6.85-19.9-6.07,19.77-.39,3.36h13.44A11.64,11.64,0,0,0,294.14,154.27Zm18.22,89.16v-54h39.8v9.05H323.22V210H348.8v9.82H323.35v14.47h29.72v9.18Zm37.48-66.29-23.78-36.57v36.57H315.21V123h11.11l22.87,36.05V123h10.86v54.14Zm34,66.16H373.48l-17.83-51v-2.85h10.86L378.65,229l11.89-39.41h10.6v2.84ZM401,177.14l-4.14-12H377l-3.61,12H362.5L380.72,123h11l20.42,54.14Zm-7.76-22.61-6.84-20.42-6.85,20.42v3h13.95A8.39,8.39,0,0,0,393.25,154.53ZM404.5,243.3V189.55H416V243.3Zm9.95-66.16V123h10.72v45h24.17v9.18Zm30.11,67.58c-29.6.65-34.76-56.47.12-56.08,19.39,0,22.75,16.15,23.52,18.61H457.48c-1.68-3.36-6.08-9.82-11.5-10.21-19.13-1.29-19.13,39.15,0,39.15,9.17,0,11.37-9.17,11.88-10.2h10.47C468.33,226.11,467,244.46,444.56,244.72ZM474.28,178c-34.76,0-33.47-56.08.38-55.82C507.36,122.48,508.26,178,474.28,178Zm-.39-9c20,.13,20-37.35.39-37.6S454.12,168.87,473.89,169Zm-3.62,74.43v-54h38.38v9.83h-28v11.11h24.81V220H480.74v14.21h29.2v9.18Zm72.88-67.58v-5.17c-1.16,1-6.33,7.62-16,7.36-33.08-.77-33.21-55,1.55-55.69a23.91,23.91,0,0,1,18.09,9.05,17.16,17.16,0,0,1,3.62,8.78h-9.18c-2.07-3.36-5.29-9-12.92-9-20.16-.26-21.45,37.86-.13,38.25,9.44.25,14.21-9.57,14.21-9.7v-2.84H529.45v-8.4h22.23v27.4Zm-10.08,69c-22.87,0-22.61-17.57-22.61-17.57H520.8s-.78,8.53,10.72,9.3c2.84.13,12.15-1,12.15-7.49,0-7.5-9.43-7.11-15.38-8.79s-17.19-4.14-17.19-14.6c0-9.18,7.5-17.06,22-17.06,19.38.13,19.26,15.12,19.38,16h-10c-.64-2.19-1.29-7.49-9.94-7.75-4.27,0-10.73,1.42-10.73,6.46,0,6.33,7.24,7.24,14.86,8.4,11.5,2.2,18.09,5.69,17.7,16.28C554.13,237.36,545.86,244.85,533.07,244.85Z" transform="translate(-122.41 -122.22)"/></svg>