<?xml version="1.0" encoding="UTF-8" standalone="no"?>
<!-- Created with Inkscape (http://www.inkscape.org/) -->

<svg
   xmlns:dc="http://purl.org/dc/elements/1.1/"
   xmlns:cc="http://creativecommons.org/ns#"
   xmlns:rdf="http://www.w3.org/1999/02/22-rdf-syntax-ns#"
   xmlns:svg="http://www.w3.org/2000/svg"
   xmlns="http://www.w3.org/2000/svg"
   xmlns:sodipodi="http://sodipodi.sourceforge.net/DTD/sodipodi-0.dtd"
   xmlns:inkscape="http://www.inkscape.org/namespaces/inkscape"
   id="svg3004"
   version="1.1"
   inkscape:version="0.48.5 r10040"
   width="438.33322"
   height="168.27065"
   xml:space="preserve"
   sodipodi:docname="codemodel.svg"><metadata
     id="metadata3010"><rdf:RDF><cc:Work
         rdf:about=""><dc:format>image/svg+xml</dc:format><dc:type
           rdf:resource="http://purl.org/dc/dcmitype/StillImage" /><dc:title></dc:title></cc:Work></rdf:RDF></metadata><defs
     id="defs3008" /><sodipodi:namedview
     pagecolor="#ffffff"
     bordercolor="#666666"
     borderopacity="1"
     objecttolerance="10"
     gridtolerance="10"
     guidetolerance="10"
     inkscape:pageopacity="0"
     inkscape:pageshadow="2"
     inkscape:window-width="1920"
     inkscape:window-height="1014"
     id="namedview3006"
     showgrid="false"
     inkscape:zoom="2.1956594"
     inkscape:cx="118.025"
     inkscape:cy="105.83073"
     inkscape:window-x="0"
     inkscape:window-y="27"
     inkscape:window-maximized="1"
     inkscape:current-layer="g3012"
     fit-margin-top="0"
     fit-margin-left="0"
     fit-margin-right="0"
     fit-margin-bottom="0" /><g
     id="g3012"
     inkscape:groupmode="layer"
     inkscape:label="ink_ext_XXXXXX"
     transform="matrix(1.25,0,0,-1.25,5.6900994e-5,287.00339)"><g
       id="g3014"
       transform="matrix(0.05863009,0,0,0.05863009,-4.5520795e-5,94.986197)"><path
         d="m 1998.39,1714.93 1984.22,0 0,566.918 -1984.22,0 0,-566.918 z"
         style="fill:#ffffff;fill-opacity:1;fill-rule:nonzero;stroke:none"
         id="path3016"
         inkscape:connector-curvature="0" /><path
         d="m 1998.39,1714.93 1984.22,0 0,566.918 -1984.22,0 0,-566.918 z"
         style="fill:none;stroke:#000000;stroke-width:28.34600067;stroke-linecap:butt;stroke-linejoin:miter;stroke-miterlimit:10;stroke-opacity:1;stroke-dasharray:none"
         id="path3018"
         inkscape:connector-curvature="0" /><path
         d="m 2271.22,2044.19 39.89,0 0,-129.07 -39.89,0 0,129.07 m 0,49.28 39.89,0 0,-32.85 -39.89,0 0,32.85"
         style="fill:#000000;fill-opacity:1;fill-rule:nonzero;stroke:none"
         id="path3020"
         inkscape:connector-curvature="0" /><path
         d="m 2353.34,2044.19 39.89,0 0,-129.07 -39.89,0 0,129.07 m 0,49.28 39.89,0 0,-32.85 -39.89,0 0,32.85"
         style="fill:#000000;fill-opacity:1;fill-rule:nonzero;stroke:none"
         id="path3022"
         inkscape:connector-curvature="0" /><path
         d="m 2496.66,2018.38 c -9.21,0 -16.24,-3.23 -21.08,-9.68 -4.84,-6.43 -7.26,-15.72 -7.26,-27.87 0,-12.15 2.42,-21.45 7.26,-27.9 4.84,-6.43 11.87,-9.64 21.08,-9.64 9.05,0 15.97,3.21 20.76,9.64 4.81,6.45 7.22,15.75 7.22,27.9 0,12.15 -2.41,21.44 -7.22,27.87 -4.79,6.45 -11.71,9.68 -20.76,9.68 m 0,30.51 c 22.03,0 39.24,-6.03 51.63,-18.08 12.39,-12.03 18.59,-28.69 18.59,-49.98 0,-21.29 -6.2,-37.96 -18.59,-50.01 -12.39,-12.03 -29.6,-18.04 -51.63,-18.04 -22.12,0 -39.41,6.01 -51.88,18.04 -12.46,12.05 -18.7,28.72 -18.7,50.01 0,21.29 6.24,37.95 18.7,49.98 12.47,12.05 29.76,18.08 51.88,18.08"
         style="fill:#000000;fill-opacity:1;fill-rule:nonzero;stroke:none"
         id="path3024"
         inkscape:connector-curvature="0" /><path
         d="m 2581.66,1858.81 117.332,0 0,21.1172 -117.332,0 0,-21.1172 z"
         style="fill:#000000;fill-opacity:1;fill-rule:nonzero;stroke:none"
         id="path3026"
         inkscape:connector-curvature="0" /><path
         d="m 2824.04,2039.5 0,-32.86 c -5.58,3.99 -11.16,6.93 -16.76,8.84 -5.6,1.93 -11.4,2.9 -17.41,2.9 -11.42,0 -20.32,-3.3 -26.7,-9.9 -6.35,-6.6 -9.53,-15.82 -9.53,-27.65 0,-11.83 3.18,-21.04 9.53,-27.64 6.38,-6.6 15.28,-9.9 26.7,-9.9 6.4,0 12.47,0.99 18.22,2.97 5.77,1.98 11.09,4.9 15.95,8.76 l 0,-32.85 c -6.38,-3.13 -12.86,-5.48 -19.43,-7.05 -6.56,-1.56 -13.14,-2.34 -19.77,-2.34 -23,0 -40.99,6 -53.97,18.01 -12.98,12 -19.47,28.68 -19.47,50.04 0,21.37 6.49,38.05 19.47,50.05 12.98,12 30.97,18.01 53.97,18.01 6.7,0 13.29,-0.79 19.77,-2.35 6.5,-1.57 12.98,-3.91 19.43,-7.04"
         style="fill:#000000;fill-opacity:1;fill-rule:nonzero;stroke:none"
         id="path3028"
         inkscape:connector-curvature="0" /><path
         d="m 2924.29,2018.38 c -9.22,0 -16.25,-3.23 -21.09,-9.68 -4.84,-6.43 -7.25,-15.72 -7.25,-27.87 0,-12.15 2.41,-21.45 7.25,-27.9 4.84,-6.43 11.87,-9.64 21.09,-9.64 9.04,0 15.96,3.21 20.75,9.64 4.82,6.45 7.22,15.75 7.22,27.9 0,12.15 -2.4,21.44 -7.22,27.87 -4.79,6.45 -11.71,9.68 -20.75,9.68 m 0,30.51 c 22.02,0 39.23,-6.03 51.62,-18.08 12.39,-12.03 18.59,-28.69 18.59,-49.98 0,-21.29 -6.2,-37.96 -18.59,-50.01 -12.39,-12.03 -29.6,-18.04 -51.62,-18.04 -22.13,0 -39.42,6.01 -51.88,18.04 -12.47,12.05 -18.71,28.72 -18.71,50.01 0,21.29 6.24,37.95 18.71,49.98 12.46,12.05 29.75,18.08 51.88,18.08"
         style="fill:#000000;fill-opacity:1;fill-rule:nonzero;stroke:none"
         id="path3030"
         inkscape:connector-curvature="0" /><path
         d="m 3157.12,1995.43 0,-80.31 -39.9,0 0,61.46 c 0,11.39 -0.27,19.24 -0.8,23.54 -0.52,4.33 -1.42,7.5 -2.72,9.53 -1.68,2.76 -3.98,4.9 -6.89,6.42 -2.88,1.54 -6.17,2.31 -9.86,2.31 -9.02,0 -16.11,-3.4 -21.27,-10.19 -5.16,-6.8 -7.73,-16.2 -7.73,-28.2 l 0,-64.87 -39.9,0 0,129.07 39.9,0 0,-16.42 c 6.28,7.23 12.94,12.56 19.98,15.98 7.04,3.43 14.81,5.14 23.32,5.14 15.03,0 26.43,-4.56 34.21,-13.68 7.77,-9.12 11.66,-22.38 11.66,-39.78"
         style="fill:#000000;fill-opacity:1;fill-rule:nonzero;stroke:none"
         id="path3032"
         inkscape:connector-curvature="0" /><path
         d="m 3243.26,2079.39 0,-35.2 42.24,0 0,-30.5 -42.24,0 0,-53.17 c 0,-5.82 1.22,-9.75 3.67,-11.81 2.45,-2.05 7.28,-3.08 14.52,-3.08 l 21.71,0 0,-30.51 -36.23,0 c -15.82,0 -27.04,3.44 -33.66,10.31 -6.6,6.89 -9.9,18.59 -9.9,35.09 l 0,53.17 -21.12,0 0,30.5 21.12,0 0,35.2 39.89,0"
         style="fill:#000000;fill-opacity:1;fill-rule:nonzero;stroke:none"
         id="path3034"
         inkscape:connector-curvature="0" /><path
         d="m 3442.43,1983.36 0,-11.91 -98.55,0 c 1,-10.17 4.53,-17.8 10.59,-22.88 6.09,-5.09 14.58,-7.63 25.48,-7.63 8.8,0 17.81,1.36 27.03,4.07 9.21,2.71 18.68,6.83 28.41,12.36 l 0,-30.51 c -9.68,-4.65 -19.36,-8.15 -29.04,-10.52 -9.68,-2.38 -19.37,-3.56 -29.07,-3.56 -23.17,0 -41.19,5.95 -54.05,17.86 -12.83,11.93 -19.25,28.66 -19.25,50.19 0,21.15 6.36,37.77 19.07,49.87 12.71,12.12 30.2,18.19 52.47,18.19 20.26,0 36.48,-5.96 48.65,-17.86 12.18,-11.88 18.26,-27.77 18.26,-47.67 m -39.89,13.9 c 0,7.04 -2.48,12.71 -7.44,17.01 -4.97,4.3 -11.44,6.46 -19.44,6.46 -8.68,0 -15.73,-2.02 -21.15,-6.05 -5.4,-4.04 -8.78,-9.84 -10.12,-17.42 l 58.15,0"
         style="fill:#000000;fill-opacity:1;fill-rule:nonzero;stroke:none"
         id="path3036"
         inkscape:connector-curvature="0" /><path
         d="m 3510.34,1981.16 -45.87,63.03 43.05,0 26,-38.24 26.36,38.24 43.04,0 -45.87,-62.81 48.22,-66.26 -43.08,0 -28.67,40.82 -28.31,-40.82 -43.09,0 48.22,66.04"
         style="fill:#000000;fill-opacity:1;fill-rule:nonzero;stroke:none"
         id="path3038"
         inkscape:connector-curvature="0" /><path
         d="m 3675.84,2079.39 0,-35.2 42.24,0 0,-30.5 -42.24,0 0,-53.17 c 0,-5.82 1.22,-9.75 3.66,-11.81 2.45,-2.05 7.29,-3.08 14.52,-3.08 l 21.71,0 0,-30.51 -36.23,0 c -15.81,0 -27.03,3.44 -33.66,10.31 -6.59,6.89 -9.89,18.59 -9.89,35.09 l 0,53.17 -21.13,0 0,30.5 21.13,0 0,35.2 39.89,0"
         style="fill:#000000;fill-opacity:1;fill-rule:nonzero;stroke:none"
         id="path3040"
         inkscape:connector-curvature="0" /><path
         d="m 14.1719,864.555 1984.22,0 0,566.918 -1984.22,0 0,-566.918 z"
         style="fill:#ffffff;fill-opacity:1;fill-rule:nonzero;stroke:none"
         id="path3042"
         inkscape:connector-curvature="0" /><path
         d="m 14.1719,864.555 1984.22,0 0,566.918 -1984.22,0 0,-566.918 z"
         style="fill:none;stroke:#000000;stroke-width:28.34600067;stroke-linecap:butt;stroke-linejoin:miter;stroke-miterlimit:10;stroke-opacity:1;stroke-dasharray:none"
         id="path3044"
         inkscape:connector-curvature="0" /><path
         d="m 360.344,1193.81 39.89,0 0,-129.06 -39.89,0 0,129.06 m 0,49.28 39.89,0 0,-32.85 -39.89,0 0,32.85"
         style="fill:#000000;fill-opacity:1;fill-rule:nonzero;stroke:none"
         id="path3046"
         inkscape:connector-curvature="0" /><path
         d="m 442.469,1193.81 39.894,0 0,-129.06 -39.894,0 0,129.06 m 0,49.28 39.894,0 0,-32.85 -39.894,0 0,32.85"
         style="fill:#000000;fill-opacity:1;fill-rule:nonzero;stroke:none"
         id="path3048"
         inkscape:connector-curvature="0" /><path
         d="m 585.789,1168 c -9.215,0 -16.242,-3.23 -21.082,-9.68 -4.84,-6.43 -7.262,-15.72 -7.262,-27.87 0,-12.15 2.422,-21.45 7.262,-27.9 4.84,-6.43 11.867,-9.64 21.082,-9.64 9.047,0 15.965,3.21 20.754,9.64 4.816,6.45 7.223,15.75 7.223,27.9 0,12.15 -2.407,21.44 -7.223,27.87 -4.789,6.45 -11.707,9.68 -20.754,9.68 m 0,30.5 c 22.023,0 39.234,-6.02 51.629,-18.07 12.391,-12.03 18.59,-28.69 18.59,-49.98 0,-21.29 -6.199,-37.96 -18.59,-50.01 -12.395,-12.03 -29.606,-18.04 -51.629,-18.04 -22.121,0 -39.414,6.01 -51.883,18.04 -12.465,12.05 -18.699,28.72 -18.699,50.01 0,21.29 6.234,37.95 18.699,49.98 12.469,12.05 29.762,18.07 51.883,18.07"
         style="fill:#000000;fill-opacity:1;fill-rule:nonzero;stroke:none"
         id="path3050"
         inkscape:connector-curvature="0" /><path
         d="m 670.781,1008.43 117.332,0 0,21.1211 -117.332,0 0,-21.1211 z"
         style="fill:#000000;fill-opacity:1;fill-rule:nonzero;stroke:none"
         id="path3052"
         inkscape:connector-curvature="0" /><path
         d="m 899.082,1177.39 0,65.7 39.895,0 0,-178.34 -39.895,0 0,18.77 c -5.766,-7.31 -12.121,-12.66 -19.066,-16.06 -6.942,-3.37 -14.985,-5.06 -24.125,-5.06 -16.157,0 -29.43,6.34 -39.821,19.03 -10.363,12.69 -15.547,29.03 -15.547,49.02 0,20 5.184,36.34 15.547,49.03 10.391,12.68 23.664,19.02 39.821,19.02 9.043,0 17.062,-1.71 24.054,-5.13 6.989,-3.42 13.371,-8.75 19.137,-15.98 m -28.23,-84.48 c 9.164,0 16.156,3.2 20.972,9.6 4.84,6.41 7.258,15.72 7.258,27.94 0,12.23 -2.418,21.54 -7.258,27.94 -4.816,6.41 -11.808,9.61 -20.972,9.61 -9.071,0 -16.024,-3.2 -20.864,-9.61 -4.816,-6.4 -7.222,-15.71 -7.222,-27.94 0,-12.22 2.406,-21.53 7.222,-27.94 4.84,-6.4 11.793,-9.6 20.864,-9.6"
         style="fill:#000000;fill-opacity:1;fill-rule:nonzero;stroke:none"
         id="path3054"
         inkscape:connector-curvature="0" /><path
         d="m 1111.02,1132.98 0,-11.91 -98.56,0 c 1,-10.17 4.53,-17.8 10.59,-22.88 6.09,-5.09 14.59,-7.63 25.49,-7.63 8.8,0 17.8,1.36 27.02,4.07 9.22,2.71 18.69,6.83 28.42,12.36 l 0,-30.51 c -9.68,-4.64 -19.36,-8.15 -29.04,-10.52 -9.68,-2.37 -19.37,-3.56 -29.08,-3.56 -23.17,0 -41.19,5.95 -54.048,17.86 -12.832,11.92 -19.25,28.66 -19.25,50.19 0,21.15 6.356,37.77 19.067,49.87 12.711,12.13 30.201,18.18 52.471,18.18 20.26,0 36.48,-5.95 48.66,-17.85 12.17,-11.88 18.26,-27.77 18.26,-47.67 m -39.9,13.9 c 0,7.04 -2.48,12.71 -7.44,17.01 -4.96,4.31 -11.44,6.46 -19.43,6.46 -8.68,0 -15.73,-2.02 -21.16,-6.05 -5.4,-4.04 -8.77,-9.84 -10.12,-17.42 l 58.15,0"
         style="fill:#000000;fill-opacity:1;fill-rule:nonzero;stroke:none"
         id="path3056"
         inkscape:connector-curvature="0" /><path
         d="m 1130.71,1193.81 40.88,0 31.86,-89.21 31.76,89.21 40.99,0 -50.38,-129.06 -44.88,0 -50.23,129.06"
         style="fill:#000000;fill-opacity:1;fill-rule:nonzero;stroke:none"
         id="path3058"
         inkscape:connector-curvature="0" /><path
         d="m 1301.25,1193.81 39.89,0 0,-129.06 -39.89,0 0,129.06 m 0,49.28 39.89,0 0,-32.85 -39.89,0 0,32.85"
         style="fill:#000000;fill-opacity:1;fill-rule:nonzero;stroke:none"
         id="path3060"
         inkscape:connector-curvature="0" /><path
         d="m 1486.63,1189.12 0,-32.85 c -5.57,3.98 -11.16,6.93 -16.75,8.83 -5.6,1.94 -11.41,2.9 -17.42,2.9 -11.42,0 -20.32,-3.3 -26.69,-9.9 -6.36,-6.6 -9.54,-15.81 -9.54,-27.65 0,-11.83 3.18,-21.04 9.54,-27.65 6.37,-6.59 15.27,-9.89 26.69,-9.89 6.4,0 12.48,0.99 18.22,2.97 5.77,1.98 11.09,4.9 15.95,8.76 l 0,-32.85 c -6.38,-3.13 -12.86,-5.48 -19.43,-7.04 -6.56,-1.57 -13.14,-2.35 -19.77,-2.35 -23,0 -40.99,6 -53.97,18 -12.98,12.01 -19.47,28.69 -19.47,50.05 0,21.37 6.49,38.05 19.47,50.05 12.98,12 30.97,18 53.97,18 6.7,0 13.29,-0.78 19.77,-2.34 6.5,-1.57 12.98,-3.91 19.43,-7.04"
         style="fill:#000000;fill-opacity:1;fill-rule:nonzero;stroke:none"
         id="path3062"
         inkscape:connector-curvature="0" /><path
         d="m 1654.75,1132.98 0,-11.91 -98.56,0 c 1,-10.17 4.53,-17.8 10.6,-22.88 6.08,-5.09 14.58,-7.63 25.48,-7.63 8.8,0 17.81,1.36 27.02,4.07 9.22,2.71 18.69,6.83 28.42,12.36 l 0,-30.51 c -9.68,-4.64 -19.36,-8.15 -29.04,-10.52 -9.68,-2.37 -19.37,-3.56 -29.08,-3.56 -23.17,0 -41.19,5.95 -54.04,17.86 -12.84,11.92 -19.25,28.66 -19.25,50.19 0,21.15 6.35,37.77 19.06,49.87 12.71,12.13 30.2,18.18 52.47,18.18 20.27,0 36.49,-5.95 48.66,-17.85 12.17,-11.88 18.26,-27.77 18.26,-47.67 m -39.89,13.9 c 0,7.04 -2.48,12.71 -7.45,17.01 -4.96,4.31 -11.44,6.46 -19.43,6.46 -8.68,0 -15.73,-2.02 -21.16,-6.05 -5.4,-4.04 -8.77,-9.84 -10.12,-17.42 l 58.16,0"
         style="fill:#000000;fill-opacity:1;fill-rule:nonzero;stroke:none"
         id="path3064"
         inkscape:connector-curvature="0" /><path
         d="m 1998.39,14.1719 1984.22,0 0,566.922 -1984.22,0 0,-566.922 z"
         style="fill:#ffffff;fill-opacity:1;fill-rule:nonzero;stroke:none"
         id="path3066"
         inkscape:connector-curvature="0" /><path
         d="m 1998.39,14.1719 1984.22,0 0,566.922 -1984.22,0 0,-566.922 z"
         style="fill:none;stroke:#000000;stroke-width:28.34600067;stroke-linecap:butt;stroke-linejoin:miter;stroke-miterlimit:10;stroke-opacity:1;stroke-dasharray:none"
         id="path3068"
         inkscape:connector-curvature="0" /><path
         d="m 2253.15,343.434 39.89,0 0,-129.067 -39.89,0 0,129.067 m 0,49.277 39.89,0 0,-32.852 -39.89,0 0,32.852"
         style="fill:#000000;fill-opacity:1;fill-rule:nonzero;stroke:none"
         id="path3070"
         inkscape:connector-curvature="0" /><path
         d="m 2335.27,343.434 39.89,0 0,-129.067 -39.89,0 0,129.067 m 0,49.277 39.89,0 0,-32.852 -39.89,0 0,32.852"
         style="fill:#000000;fill-opacity:1;fill-rule:nonzero;stroke:none"
         id="path3072"
         inkscape:connector-curvature="0" /><path
         d="m 2478.59,317.617 c -9.21,0 -16.24,-3.226 -21.08,-9.679 -4.84,-6.426 -7.26,-15.715 -7.26,-27.864 0,-12.148 2.42,-21.453 7.26,-27.906 4.84,-6.426 11.87,-9.641 21.08,-9.641 9.05,0 15.97,3.215 20.76,9.641 4.81,6.453 7.22,15.758 7.22,27.906 0,12.149 -2.41,21.438 -7.22,27.864 -4.79,6.453 -11.71,9.679 -20.76,9.679 m 0,30.508 c 22.03,0 39.24,-6.023 51.63,-18.074 12.39,-12.028 18.59,-28.688 18.59,-49.977 0,-21.293 -6.2,-37.965 -18.59,-50.015 -12.39,-12.024 -29.6,-18.039 -51.63,-18.039 -22.12,0 -39.41,6.015 -51.88,18.039 -12.46,12.05 -18.7,28.722 -18.7,50.015 0,21.289 6.24,37.949 18.7,49.977 12.47,12.051 29.76,18.074 51.88,18.074"
         style="fill:#000000;fill-opacity:1;fill-rule:nonzero;stroke:none"
         id="path3074"
         inkscape:connector-curvature="0" /><path
         d="m 2563.59,158.047 117.332,0 0,21.1211 -117.332,0 0,-21.1211 z"
         style="fill:#000000;fill-opacity:1;fill-rule:nonzero;stroke:none"
         id="path3076"
         inkscape:connector-curvature="0" /><path
         d="m 2805.97,338.738 0,-32.851 c -5.58,3.984 -11.16,6.929 -16.76,8.836 -5.6,1.929 -11.4,2.894 -17.42,2.894 -11.41,0 -20.31,-3.297 -26.69,-9.898 -6.35,-6.598 -9.53,-15.817 -9.53,-27.645 0,-11.832 3.18,-21.047 9.53,-27.648 6.38,-6.598 15.28,-9.899 26.69,-9.899 6.41,0 12.48,0.989 18.23,2.969 5.77,1.981 11.08,4.902 15.95,8.762 l 0,-32.852 c -6.38,-3.129 -12.86,-5.476 -19.43,-7.039 -6.56,-1.566 -13.15,-2.347 -19.77,-2.347 -23,0 -40.99,6 -53.97,18.003 -12.98,12 -19.47,28.684 -19.47,50.051 0,21.364 6.49,38.047 19.47,50.047 12.98,12.004 30.97,18.004 53.97,18.004 6.7,0 13.29,-0.781 19.77,-2.348 6.5,-1.562 12.98,-3.91 19.43,-7.039"
         style="fill:#000000;fill-opacity:1;fill-rule:nonzero;stroke:none"
         id="path3078"
         inkscape:connector-curvature="0" /><path
         d="m 2974.09,294.664 0,-80.297 -39.9,0 0,61.231 c 0,11.539 -0.26,19.461 -0.8,23.761 -0.51,4.329 -1.42,7.504 -2.72,9.532 -1.68,2.765 -3.98,4.902 -6.89,6.418 -2.89,1.539 -6.17,2.308 -9.86,2.308 -9.02,0 -16.11,-3.394 -21.27,-10.191 -5.16,-6.797 -7.74,-16.196 -7.74,-28.196 l 0,-64.863 -39.89,0 0,178.344 39.89,0 0,-65.707 c 6.29,7.238 12.95,12.566 19.99,15.988 7.04,3.422 14.81,5.133 23.31,5.133 15.04,0 26.44,-4.559 34.22,-13.676 7.77,-9.117 11.66,-22.379 11.66,-39.785"
         style="fill:#000000;fill-opacity:1;fill-rule:nonzero;stroke:none"
         id="path3080"
         inkscape:connector-curvature="0" /><path
         d="m 3073.14,273.031 c -8.95,0 -15.68,-1.418 -20.21,-4.25 -4.52,-2.812 -6.78,-6.969 -6.78,-12.469 0,-5.035 1.82,-8.984 5.46,-11.843 3.65,-2.86 8.69,-4.289 15.15,-4.289 8.09,0 14.88,2.687 20.38,8.066 5.53,5.379 8.29,12.113 8.29,20.203 l 0,4.582 -22.29,0 m 62.18,14.887 0,-73.551 -39.89,0 0,21.121 c -5.55,-8.191 -11.79,-14.156 -18.73,-17.894 -6.92,-3.715 -15.34,-5.574 -25.27,-5.574 -13.39,0 -24.27,3.824 -32.63,11.476 -8.36,7.676 -12.54,17.625 -12.54,29.848 0,14.886 5.13,25.801 15.4,32.742 10.29,6.941 26.45,10.414 48.47,10.414 l 25.3,0 0,3.301 c 0,6.965 -2.57,12.062 -7.7,15.289 -5.13,3.25 -13.14,4.875 -24.02,4.875 -8.8,0 -17,-0.977 -24.6,-2.934 -7.57,-1.953 -14.62,-4.886 -21.12,-8.797 l 0,30.504 c 8.63,3.082 17.3,5.414 26,7.004 8.72,1.59 17.44,2.383 26.14,2.383 23.03,0 39.65,-4.73 49.87,-14.187 10.21,-9.438 15.32,-24.778 15.32,-46.02"
         style="fill:#000000;fill-opacity:1;fill-rule:nonzero;stroke:none"
         id="path3082"
         inkscape:connector-curvature="0" /><path
         d="m 3306.84,294.664 0,-80.297 -39.89,0 0,61.453 c 0,11.391 -0.27,19.239 -0.81,23.539 -0.52,4.329 -1.42,7.504 -2.71,9.532 -1.69,2.765 -3.99,4.902 -6.9,6.418 -2.88,1.539 -6.17,2.308 -9.86,2.308 -9.02,0 -16.11,-3.394 -21.27,-10.191 -5.15,-6.797 -7.73,-16.196 -7.73,-28.196 l 0,-64.863 -39.9,0 0,129.067 39.9,0 0,-16.43 c 6.28,7.238 12.94,12.566 19.98,15.988 7.04,3.422 14.81,5.133 23.32,5.133 15.03,0 26.44,-4.559 34.21,-13.676 7.77,-9.117 11.66,-22.379 11.66,-39.785"
         style="fill:#000000;fill-opacity:1;fill-rule:nonzero;stroke:none"
         id="path3084"
         inkscape:connector-curvature="0" /><path
         d="m 3477.46,294.664 0,-80.297 -39.89,0 0,61.453 c 0,11.391 -0.27,19.239 -0.8,23.539 -0.52,4.329 -1.42,7.504 -2.72,9.532 -1.69,2.765 -3.98,4.902 -6.89,6.418 -2.89,1.539 -6.18,2.308 -9.87,2.308 -9.02,0 -16.1,-3.394 -21.26,-10.191 -5.16,-6.797 -7.74,-16.196 -7.74,-28.196 l 0,-64.863 -39.89,0 0,129.067 39.89,0 0,-16.43 c 6.28,7.238 12.94,12.566 19.98,15.988 7.05,3.422 14.82,5.133 23.32,5.133 15.04,0 26.44,-4.559 34.21,-13.676 7.78,-9.117 11.66,-22.379 11.66,-39.785"
         style="fill:#000000;fill-opacity:1;fill-rule:nonzero;stroke:none"
         id="path3086"
         inkscape:connector-curvature="0" /><path
         d="m 3648.09,282.602 0,-11.914 -98.56,0 c 1,-10.172 4.53,-17.797 10.59,-22.883 6.09,-5.082 14.59,-7.625 25.49,-7.625 8.8,0 17.81,1.355 27.02,4.07 9.22,2.715 18.69,6.832 28.42,12.355 l 0,-30.503 c -9.68,-4.645 -19.36,-8.153 -29.04,-10.524 -9.68,-2.371 -19.37,-3.558 -29.08,-3.558 -23.17,0 -41.19,5.953 -54.04,17.855 -12.84,11.93 -19.25,28.664 -19.25,50.199 0,21.145 6.35,37.766 19.06,49.864 12.71,12.124 30.2,18.187 52.47,18.187 20.27,0 36.49,-5.953 48.66,-17.855 12.17,-11.879 18.26,-27.77 18.26,-47.668 M 3608.2,296.5 c 0,7.039 -2.49,12.711 -7.45,17.012 -4.96,4.304 -11.44,6.453 -19.43,6.453 -8.68,0 -15.73,-2.016 -21.16,-6.051 -5.4,-4.031 -8.77,-9.836 -10.12,-17.414 l 58.16,0"
         style="fill:#000000;fill-opacity:1;fill-rule:nonzero;stroke:none"
         id="path3088"
         inkscape:connector-curvature="0" /><path
         d="m 3681.86,214.367 39.8945,0 0,178.344 -39.8945,0 0,-178.344 z"
         style="fill:#000000;fill-opacity:1;fill-rule:nonzero;stroke:none"
         id="path3090"
         inkscape:connector-curvature="0" /><path
         d="m 3982.61,864.555 1984.22,0 0,566.918 -1984.22,0 0,-566.918 z"
         style="fill:#ffffff;fill-opacity:1;fill-rule:nonzero;stroke:none"
         id="path3092"
         inkscape:connector-curvature="0" /><path
         d="m 3982.61,864.555 1984.22,0 0,566.918 -1984.22,0 0,-566.918 z"
         style="fill:none;stroke:#000000;stroke-width:28.34600067;stroke-linecap:butt;stroke-linejoin:miter;stroke-miterlimit:10;stroke-opacity:1;stroke-dasharray:none"
         id="path3094"
         inkscape:connector-curvature="0" /><path
         d="m 4359.25,1193.81 39.9,0 0,-129.06 -39.9,0 0,129.06 m 0,49.28 39.9,0 0,-32.85 -39.9,0 0,32.85"
         style="fill:#000000;fill-opacity:1;fill-rule:nonzero;stroke:none"
         id="path3096"
         inkscape:connector-curvature="0" /><path
         d="m 4441.38,1193.81 39.89,0 0,-129.06 -39.89,0 0,129.06 m 0,49.28 39.89,0 0,-32.85 -39.89,0 0,32.85"
         style="fill:#000000;fill-opacity:1;fill-rule:nonzero;stroke:none"
         id="path3098"
         inkscape:connector-curvature="0" /><path
         d="m 4584.7,1168 c -9.21,0 -16.24,-3.23 -21.08,-9.68 -4.84,-6.43 -7.26,-15.72 -7.26,-27.87 0,-12.15 2.42,-21.45 7.26,-27.9 4.84,-6.43 11.87,-9.64 21.08,-9.64 9.05,0 15.96,3.21 20.76,9.64 4.81,6.45 7.22,15.75 7.22,27.9 0,12.15 -2.41,21.44 -7.22,27.87 -4.8,6.45 -11.71,9.68 -20.76,9.68 m 0,30.5 c 22.03,0 39.23,-6.02 51.63,-18.07 12.39,-12.03 18.59,-28.69 18.59,-49.98 0,-21.29 -6.2,-37.96 -18.59,-50.01 -12.4,-12.03 -29.6,-18.04 -51.63,-18.04 -22.12,0 -39.41,6.01 -51.88,18.04 -12.47,12.05 -18.7,28.72 -18.7,50.01 0,21.29 6.23,37.95 18.7,49.98 12.47,12.05 29.76,18.07 51.88,18.07"
         style="fill:#000000;fill-opacity:1;fill-rule:nonzero;stroke:none"
         id="path3100"
         inkscape:connector-curvature="0" /><path
         d="m 4669.69,1008.43 117.332,0 0,21.1211 -117.332,0 0,-21.1211 z"
         style="fill:#000000;fill-opacity:1;fill-rule:nonzero;stroke:none"
         id="path3102"
         inkscape:connector-curvature="0" /><path
         d="m 4876.99,1092.91 c 9.12,0 16.07,3.2 20.86,9.6 4.79,6.41 7.19,15.72 7.19,27.94 0,12.23 -2.4,21.54 -7.19,27.94 -4.79,6.41 -11.74,9.61 -20.86,9.61 -9.1,0 -16.09,-3.23 -20.98,-9.68 -4.86,-6.45 -7.3,-15.74 -7.3,-27.87 0,-12.12 2.44,-21.41 7.3,-27.86 4.89,-6.46 11.88,-9.68 20.98,-9.68 m -28.28,84.48 c 5.77,7.23 12.16,12.56 19.15,15.98 7.01,3.42 15.08,5.13 24.19,5.13 16.11,0 29.34,-6.34 39.68,-19.02 10.36,-12.69 15.55,-29.03 15.55,-49.03 0,-19.99 -5.19,-36.33 -15.55,-49.02 -10.34,-12.69 -23.57,-19.03 -39.68,-19.03 -9.11,0 -17.18,1.71 -24.19,5.14 -6.99,3.42 -13.38,8.75 -19.15,15.98 l 0,-18.77 -39.89,0 0,178.34 39.89,0 0,-65.7"
         style="fill:#000000;fill-opacity:1;fill-rule:nonzero;stroke:none"
         id="path3104"
         inkscape:connector-curvature="0" /><path
         d="m 4980.86,1115.2 0,78.61 39.9,0 0,-12.87 c 0,-6.96 -0.04,-15.71 -0.11,-26.25 -0.08,-10.54 -0.11,-17.57 -0.11,-21.08 0,-10.37 0.28,-17.84 0.84,-22.41 0.56,-4.54 1.53,-7.84 2.9,-9.9 1.78,-2.69 4.09,-4.76 6.93,-6.23 2.86,-1.44 6.15,-2.16 9.86,-2.16 9.02,0 16.1,3.29 21.23,9.86 5.16,6.6 7.74,15.77 7.74,27.5 l 0,63.54 39.89,0 0,-129.06 -39.89,0 0,18.77 c -6.26,-7.23 -12.9,-12.56 -19.92,-15.98 -7.01,-3.43 -14.73,-5.14 -23.17,-5.14 -15,0 -26.45,4.5 -34.32,13.49 -7.84,9.02 -11.77,22.13 -11.77,39.31"
         style="fill:#000000;fill-opacity:1;fill-rule:nonzero;stroke:none"
         id="path3106"
         inkscape:connector-curvature="0" /><path
         d="m 5238.32,1243.09 0,-28.16 -23.66,0 c -6.06,0 -10.27,-0.94 -12.64,-2.82 -2.4,-1.98 -3.6,-5.34 -3.6,-10.08 l 0,-8.22 49.28,0 0,8.8 c 0,13.81 3.8,24 11.41,30.55 7.62,6.62 19.41,9.93 35.38,9.93 l 30.65,0 0,-28.16 -22.26,0 c -5.69,0 -9.67,-0.94 -11.91,-2.82 -2.25,-1.98 -3.38,-5.34 -3.38,-10.08 l 0,-8.22 35.2,0 0,-30.51 -35.2,0 0,-98.55 -39.89,0 0,98.55 -49.28,0 0,-98.55 -39.89,0 0,98.55 -21.12,0 0,30.51 21.12,0 0,8.8 c 0,13.81 3.92,24 11.77,30.55 7.82,6.62 19.96,9.93 36.41,9.93 l 31.61,0"
         style="fill:#000000;fill-opacity:1;fill-rule:nonzero;stroke:none"
         id="path3108"
         inkscape:connector-curvature="0" /><path
         d="m 5474.54,1132.98 0,-11.91 -98.56,0 c 1,-10.17 4.54,-17.8 10.6,-22.88 6.08,-5.09 14.58,-7.63 25.48,-7.63 8.8,0 17.81,1.36 27.03,4.07 9.21,2.71 18.68,6.83 28.41,12.36 l 0,-30.51 c -9.68,-4.64 -19.36,-8.15 -29.04,-10.52 -9.68,-2.37 -19.37,-3.56 -29.08,-3.56 -23.17,0 -41.18,5.95 -54.04,17.86 -12.84,11.92 -19.25,28.66 -19.25,50.19 0,21.15 6.36,37.77 19.07,49.87 12.71,12.13 30.2,18.18 52.46,18.18 20.27,0 36.49,-5.95 48.66,-17.85 12.17,-11.88 18.26,-27.77 18.26,-47.67 m -39.89,13.9 c 0,7.04 -2.48,12.71 -7.45,17.01 -4.96,4.31 -11.43,6.46 -19.43,6.46 -8.68,0 -15.73,-2.02 -21.16,-6.05 -5.4,-4.04 -8.77,-9.84 -10.11,-17.42 l 58.15,0"
         style="fill:#000000;fill-opacity:1;fill-rule:nonzero;stroke:none"
         id="path3110"
         inkscape:connector-curvature="0" /><path
         d="m 5604.52,1160.96 c -3.71,1.59 -7.41,2.76 -11.11,3.52 -3.69,0.78 -7.39,1.17 -11.11,1.17 -10.92,0 -19.34,-3.45 -25.26,-10.37 -5.89,-6.9 -8.84,-16.77 -8.84,-29.63 l 0,-60.9 -39.89,0 0,129.06 39.89,0 0,-18.77 c 5.48,8.16 11.76,14.12 18.85,17.85 7.09,3.75 15.58,5.61 25.49,5.61 1.41,0 2.95,-0.08 4.61,-0.25 1.67,-0.17 4.08,-0.55 7.26,-1.14 l 0.11,-36.15"
         style="fill:#000000;fill-opacity:1;fill-rule:nonzero;stroke:none"
         id="path3112"
         inkscape:connector-curvature="0" /><path
         d="m 1998.39,1998.39 -992.11,0 0,-566.92"
         style="fill:none;stroke:#000000;stroke-width:28.34600067;stroke-linecap:butt;stroke-linejoin:miter;stroke-miterlimit:10;stroke-opacity:1;stroke-dasharray:none"
         id="path3114"
         inkscape:connector-curvature="0" /><path
         d="m 1856.04,2054.99 28.16,0 0,100.91 -30.51,-7.04 0,14.08 30.76,7.04 18.52,0 0,-114.99 28.16,0 0,-14.08 -75.09,0 0,14.08"
         style="fill:#000000;fill-opacity:1;fill-rule:nonzero;stroke:none"
         id="path3116"
         inkscape:connector-curvature="0" /><path
         d="m 1105.21,1553.84 c 0,3.2 1.13,5.96 3.38,8.28 2.27,2.32 4.98,3.49 8.14,3.49 3.27,0 6.09,-1.17 8.43,-3.49 2.35,-2.32 3.52,-5.08 3.52,-8.28 0,-3.26 -1.16,-6.02 -3.48,-8.29 -2.3,-2.28 -5.12,-3.41 -8.47,-3.41 -3.28,0 -6.02,1.1 -8.21,3.3 -2.2,2.22 -3.31,5.02 -3.31,8.4 m 11.7,51.66 c -7.87,0 -13.75,-4.36 -17.64,-13.05 -3.86,-8.71 -5.79,-21.97 -5.79,-39.79 0,-17.77 1.93,-31.01 5.79,-39.71 3.89,-8.7 9.77,-13.05 17.64,-13.05 7.92,0 13.81,4.35 17.68,13.05 3.88,8.7 5.82,21.94 5.82,39.71 0,17.82 -1.94,31.08 -5.82,39.79 -3.87,8.69 -9.76,13.05 -17.68,13.05 m 0,14.08 c 13.91,0 24.43,-5.65 31.57,-16.94 7.14,-11.27 10.71,-27.93 10.71,-49.98 0,-22 -3.57,-38.64 -10.71,-49.94 -7.14,-11.27 -17.66,-16.9 -31.57,-16.9 -13.93,0 -24.46,5.63 -31.57,16.9 -7.09,11.3 -10.63,27.94 -10.63,49.94 0,22.05 3.54,38.71 10.63,49.98 7.11,11.29 17.64,16.94 31.57,16.94"
         style="fill:#000000;fill-opacity:1;fill-rule:nonzero;stroke:none"
         id="path3118"
         inkscape:connector-curvature="0" /><path
         d="m 1214.24,1488.16 21.1211,0 0,25.8125 -21.1211,0 0,-25.8125 z"
         style="fill:#000000;fill-opacity:1;fill-rule:nonzero;stroke:none"
         id="path3120"
         inkscape:connector-curvature="0" /><path
         d="m 1323.27,1488.16 21.1211,0 0,25.8125 -21.1211,0 0,-25.8125 z"
         style="fill:#000000;fill-opacity:1;fill-rule:nonzero;stroke:none"
         id="path3122"
         inkscape:connector-curvature="0" /><path
         d="m 1483.93,1596.77 -32.08,-17.09 32.08,-17.19 -5.1,-8.62 -30.1,17.9 0,-31.98 -9.39,0 0,31.98 -30.1,-17.9 -5.1,8.62 32.09,17.19 -32.09,17.09 5.1,8.73 30.1,-17.89 0,31.97 9.39,0 0,-31.97 30.1,17.89 5.1,-8.73"
         style="fill:#000000;fill-opacity:1;fill-rule:nonzero;stroke:none"
         id="path3124"
         inkscape:connector-curvature="0" /><path
         d="m 1006.28,850.309 0,-552.676 992.11,0"
         style="fill:none;stroke:#000000;stroke-width:28.34600067;stroke-linecap:butt;stroke-linejoin:miter;stroke-miterlimit:10;stroke-opacity:1;stroke-dasharray:none"
         id="path3126"
         inkscape:connector-curvature="0" /><path
         d="m 1086.44,694.312 28.16,0 0,100.907 -30.51,-7.043 0,14.082 30.77,7.039 18.52,0 0,-114.985 28.16,0 0,-14.082 -75.1,0 0,14.082"
         style="fill:#000000;fill-opacity:1;fill-rule:nonzero;stroke:none"
         id="path3128"
         inkscape:connector-curvature="0" /><path
         d="m 1547.41,405.82 c 0,3.203 1.13,5.965 3.38,8.289 2.27,2.321 4.98,3.481 8.14,3.481 3.27,0 6.08,-1.16 8.43,-3.481 2.35,-2.324 3.52,-5.086 3.52,-8.289 0,-3.25 -1.16,-6.011 -3.49,-8.285 -2.29,-2.273 -5.12,-3.41 -8.46,-3.41 -3.28,0 -6.02,1.102 -8.22,3.301 -2.2,2.222 -3.3,5.023 -3.3,8.394 m 11.7,51.664 c -7.87,0 -13.75,-4.351 -17.64,-13.054 -3.86,-8.7 -5.79,-21.961 -5.79,-39.782 0,-17.769 1.93,-31.007 5.79,-39.71 3.89,-8.704 9.77,-13.051 17.64,-13.051 7.92,0 13.81,4.347 17.67,13.051 3.89,8.703 5.83,21.941 5.83,39.71 0,17.821 -1.94,31.082 -5.83,39.782 -3.86,8.703 -9.75,13.054 -17.67,13.054 m 0,14.078 c 13.91,0 24.43,-5.644 31.57,-16.937 7.14,-11.27 10.71,-27.93 10.71,-49.977 0,-22 -3.57,-38.648 -10.71,-49.941 -7.14,-11.266 -17.66,-16.902 -31.57,-16.902 -13.93,0 -24.46,5.636 -31.57,16.902 -7.09,11.293 -10.63,27.941 -10.63,49.941 0,22.047 3.54,38.707 10.63,49.977 7.11,11.293 17.64,16.937 31.57,16.937"
         style="fill:#000000;fill-opacity:1;fill-rule:nonzero;stroke:none"
         id="path3130"
         inkscape:connector-curvature="0" /><path
         d="m 1656.44,340.152 21.1211,0 0,25.8125 -21.1211,0 0,-25.8125 z"
         style="fill:#000000;fill-opacity:1;fill-rule:nonzero;stroke:none"
         id="path3132"
         inkscape:connector-curvature="0" /><path
         d="m 1765.47,340.152 21.1172,0 0,25.8125 -21.1172,0 0,-25.8125 z"
         style="fill:#000000;fill-opacity:1;fill-rule:nonzero;stroke:none"
         id="path3134"
         inkscape:connector-curvature="0" /><path
         d="m 1926.13,448.758 -32.09,-17.086 32.09,-17.199 -5.1,-8.614 -30.1,17.891 0,-31.973 -9.39,0 0,31.973 -30.1,-17.891 -5.1,8.614 32.09,17.199 -32.09,17.086 5.1,8.726 30.1,-17.894 0,31.972 9.39,0 0,-31.972 30.1,17.894 5.1,-8.726"
         style="fill:#000000;fill-opacity:1;fill-rule:nonzero;stroke:none"
         id="path3136"
         inkscape:connector-curvature="0" /><path
         d="m 2012.69,1148.01 1955.63,0"
         style="fill:none;stroke:#000000;stroke-width:28.34600067;stroke-linecap:butt;stroke-linejoin:miter;stroke-miterlimit:10;stroke-opacity:1;stroke-dasharray:none"
         id="path3138"
         inkscape:connector-curvature="0" /><path
         d="m 2092.85,1204.61 28.16,0 0,100.91 -30.51,-7.04 0,14.08 30.76,7.04 18.52,0 0,-114.99 28.16,0 0,-14.08 -75.09,0 0,14.08"
         style="fill:#000000;fill-opacity:1;fill-rule:nonzero;stroke:none"
         id="path3140"
         inkscape:connector-curvature="0" /><path
         d="m 3517.34,1256.2 c 0,3.2 1.12,5.96 3.37,8.29 2.27,2.32 4.99,3.48 8.14,3.48 3.27,0 6.09,-1.16 8.44,-3.48 2.34,-2.33 3.51,-5.09 3.51,-8.29 0,-3.25 -1.16,-6.01 -3.48,-8.29 -2.3,-2.27 -5.12,-3.41 -8.47,-3.41 -3.28,0 -6.01,1.11 -8.21,3.3 -2.2,2.23 -3.3,5.03 -3.3,8.4 m 11.7,51.66 c -7.88,0 -13.75,-4.35 -17.64,-13.05 -3.86,-8.7 -5.79,-21.96 -5.79,-39.78 0,-17.77 1.93,-31.01 5.79,-39.71 3.89,-8.7 9.76,-13.05 17.64,-13.05 7.91,0 13.8,4.35 17.67,13.05 3.88,8.7 5.83,21.94 5.83,39.71 0,17.82 -1.95,31.08 -5.83,39.78 -3.87,8.7 -9.76,13.05 -17.67,13.05 m 0,14.09 c 13.9,0 24.42,-5.65 31.56,-16.95 7.14,-11.27 10.71,-27.92 10.71,-49.97 0,-22 -3.57,-38.65 -10.71,-49.94 -7.14,-11.27 -17.66,-16.91 -31.56,-16.91 -13.94,0 -24.46,5.64 -31.58,16.91 -7.08,11.29 -10.63,27.94 -10.63,49.94 0,22.05 3.55,38.7 10.63,49.97 7.12,11.3 17.64,16.95 31.58,16.95"
         style="fill:#000000;fill-opacity:1;fill-rule:nonzero;stroke:none"
         id="path3142"
         inkscape:connector-curvature="0" /><path
         d="m 3626.37,1190.53 21.1172,0 0,25.8125 -21.1172,0 0,-25.8125 z"
         style="fill:#000000;fill-opacity:1;fill-rule:nonzero;stroke:none"
         id="path3144"
         inkscape:connector-curvature="0" /><path
         d="m 3735.39,1190.53 21.1211,0 0,25.8125 -21.1211,0 0,-25.8125 z"
         style="fill:#000000;fill-opacity:1;fill-rule:nonzero;stroke:none"
         id="path3146"
         inkscape:connector-curvature="0" /><path
         d="m 3825.65,1204.61 28.16,0 0,100.91 -30.51,-7.04 0,14.08 30.77,7.04 18.52,0 0,-114.99 28.16,0 0,-14.08 -75.1,0 0,14.08"
         style="fill:#000000;fill-opacity:1;fill-rule:nonzero;stroke:none"
         id="path3148"
         inkscape:connector-curvature="0" /></g></g></svg>